<?xml version="1.0" standalone="no"?>
<!DOCTYPE svg PUBLIC "-//W3C//DTD SVG 1.1//EN" "http://www.w3.org/Graphics/SVG/1.1/DTD/svg11.dtd" >
<svg xmlns="http://www.w3.org/2000/svg">
<metadata>Generated by IcoMoon</metadata>
<defs>
<font id="icomoon_video" horiz-adv-x="1024">
<font-face units-per-em="1024" ascent="960" descent="-64" />
<missing-glyph horiz-adv-x="1024" />
<glyph unicode="&#x20;" horiz-adv-x="512" d="" />
<glyph unicode="&#xe1e5;" glyph-name="local_movies" d="M384 682.667h-86v-86h86v86zM554 682.667h-84v-86h84v86zM726 682.667h-86v-86h86v86zM384 256.667h-86v-86h86v86zM554 256.667h-84v-86h84v86zM726 256.667h-86v-86h86v86zM128 682.667v86h768v-86h-86v-86h86v-340h-86v-86h86v-86h-768v86h86v86h-86v340h86v86h-86z" />
<glyph unicode="&#xe600;" glyph-name="icon_01" d="M479.319 546.043h65.362v-87.149h-65.362v87.149zM512 415.319c18.062 0 32.681-14.641 32.681-32.681s-14.619-32.681-32.681-32.681c-18.062 0-32.681 14.641-32.681 32.681s14.619 32.681 32.681 32.681z" />
<glyph unicode="&#xe601;" glyph-name="icon_02" d="M115.2-64c0 0 0 793.6 0 793.6s230.4 230.4 230.4 230.4c0 0 563.2 0 563.2 0s0-1024 0-1024c0 0-793.6 0-793.6 0zM371.2 883.2c0 0-156.8-179.2-156.8-179.2s156.8 0 156.8 0c0 0 0 179.2 0 179.2zM832 883.2c0 0-384 0-384 0s0-256 0-256c0 0-51.2 0-51.2 0s-25.6 0-25.6 0c0 0-179.2 0-179.2 0s0-614.4 0-614.4c0 0 640 0 640 0s0 870.4 0 870.4zM380.314 261.555c9.139-3.712 16.947-8.883 23.45-15.488 6.477-6.63 11.52-14.566 15.104-23.808 3.584-9.216 5.35-19.328 5.35-30.387 0-11.034-1.766-21.146-5.35-30.387-3.584-9.216-8.627-17.152-15.104-23.834-6.502-6.656-14.31-11.802-23.45-15.488-9.114-3.686-19.251-5.53-30.413-5.53 0 0-55.859 0-55.859 0s0 150.502 0 150.502c0 0 55.859 0 55.859 0 11.162 0 21.299-1.869 30.413-5.581zM321.408 138.931c0 0 28.493 0 28.493 0 7.168 0 13.619 1.178 19.328 3.635 5.709 2.406 10.573 5.914 14.592 10.47 4.019 4.506 7.091 10.086 9.216 16.64 2.15 6.554 3.2 13.952 3.2 22.195 0 8.269-1.050 15.667-3.2 22.246-2.125 6.554-5.197 12.109-9.216 16.64s-8.883 8.038-14.592 10.47c-5.709 2.406-12.16 3.635-19.328 3.635 0 0-28.493 0-28.493 0s0-105.933 0-105.933zM473.574 246.938c6.502 6.861 14.336 12.237 23.475 16.077 9.114 3.866 19.226 5.786 30.31 5.786 7.424 0 14.438-0.896 20.992-2.662s12.57-4.275 18.048-7.501c5.453-3.226 10.394-7.142 14.746-11.75s8.064-9.754 11.11-15.462c3.046-5.683 5.35-11.853 6.938-18.509s2.381-13.67 2.381-21.043c0-11.034-1.766-21.248-5.325-30.643-3.533-9.395-8.576-17.536-15.053-24.397-6.477-6.886-14.285-12.237-23.424-16.077-9.139-3.866-19.277-5.786-30.413-5.786-11.085 0-21.197 1.92-30.31 5.786-9.139 3.84-16.973 9.19-23.475 16.077-6.528 6.861-11.597 15.002-15.155 24.397-3.584 9.395-5.402 19.61-5.402 30.643 0 11.059 1.818 21.274 5.402 30.643 3.558 9.395 8.627 17.562 15.155 24.422zM484.147 169.677c2.176-6.554 5.274-12.134 9.293-16.64 4.019-4.557 8.883-8.064 14.618-10.47 5.683-2.458 12.134-3.635 19.302-3.635s13.594 1.178 19.328 3.635c5.683 2.406 10.547 5.914 14.541 10.47 3.968 4.506 7.066 10.086 9.216 16.64s3.251 13.952 3.251 22.195c0 8.269-1.101 15.667-3.251 22.246-2.15 6.554-5.248 12.109-9.216 16.691-3.994 4.557-8.858 8.090-14.541 10.522-5.734 2.406-12.16 3.635-19.328 3.635s-13.619-1.229-19.302-3.635c-5.734-2.432-10.598-5.965-14.618-10.522-4.019-4.582-7.117-10.138-9.293-16.691-2.15-6.579-3.226-13.978-3.226-22.246 0-8.243 1.075-15.642 3.226-22.195zM651.213 247.245c6.374 6.81 13.978 12.109 22.861 15.872 8.858 3.789 18.662 5.683 29.389 5.683 10.675 0 20.147-1.792 28.442-5.402 8.269-3.61 15.334-8.346 21.146-14.157 0 0-9.139-13.005-9.139-13.005-0.538-0.87-1.229-1.562-2.074-2.176-0.845-0.666-1.997-0.973-3.482-0.973-1.024 0-2.074 0.307-3.149 0.896-1.101 0.589-2.278 1.306-3.558 2.202-1.306 0.87-2.765 1.818-4.454 2.842-1.69 1.050-3.635 1.997-5.862 2.867-2.253 0.87-4.838 1.587-7.782 2.176s-6.349 0.896-10.189 0.896c-6.554 0-12.57-1.203-17.997-3.584-5.427-2.406-10.112-5.862-14.054-10.419-3.917-4.531-6.963-10.086-9.114-16.64-2.176-6.554-3.226-14.029-3.226-22.451 0-8.448 1.152-15.974 3.482-22.554 2.33-6.605 5.504-12.16 9.472-16.666 3.994-4.506 8.704-7.962 14.106-10.342 5.402-2.432 11.213-3.61 17.434-3.61 3.712 0 7.091 0.23 10.086 0.64 3.021 0.384 5.786 1.050 8.32 1.971 2.534 0.896 4.915 2.048 7.194 3.482 2.253 1.434 4.506 3.174 6.733 5.248 0.691 0.614 1.382 1.126 2.125 1.51s1.536 0.589 2.355 0.589c1.485 0 2.816-0.589 3.942-1.792 0 0 10.752-11.955 10.752-11.955-5.939-7.578-13.261-13.363-21.939-17.382-8.704-4.019-19.123-6.042-31.283-6.042-10.906 0-20.685 1.92-29.363 5.734-8.704 3.814-16.102 9.114-22.246 15.898-6.144 6.81-10.854 14.95-14.157 24.371-3.277 9.421-4.915 19.738-4.915 30.899 0 11.315 1.766 21.683 5.274 31.078 3.533 9.395 8.474 17.51 14.874 24.294z" />
<glyph unicode="&#xe602;" glyph-name="icon_03" d="M833.536 112.090c-1.252-0.986-2.958-1.441-5.158-1.441-1.517 0-3.072 0.455-4.665 1.327-1.631 0.872-3.375 1.934-5.272 3.262-1.934 1.289-4.096 2.693-6.599 4.21-2.503 1.555-5.385 2.958-8.685 4.248-3.337 1.289-7.168 2.351-11.529 3.224s-9.406 1.327-15.095 1.327c-9.709 0-18.622-1.783-26.662-5.31-8.040-3.565-14.981-8.685-20.821-15.436-5.803-6.713-10.316-14.943-13.502-24.652-3.224-9.709-4.779-20.783-4.779-33.261 0-12.516 1.707-23.666 5.158-33.413 3.451-9.785 8.154-18.015 14.033-24.69 5.916-6.675 12.895-11.795 20.897-15.322 8.002-3.603 16.612-5.348 25.828-5.348 5.499 0 10.505 0.341 14.943 0.948 4.475 0.569 8.571 1.555 12.326 2.92 3.755 1.327 7.282 3.034 10.657 5.158 3.337 2.124 6.675 4.703 9.975 7.775 1.024 0.91 2.048 1.669 3.148 2.238s2.276 0.872 3.489 0.872c2.2 0 4.172-0.872 5.841-2.655 0 0 15.929-17.711 15.929-17.711-8.799-11.226-19.646-19.797-32.503-25.752-12.895-5.954-28.331-8.951-46.345-8.951-16.156 0-30.644 2.844-43.501 8.495-12.895 5.651-23.855 13.502-32.958 23.552-9.102 10.088-16.081 22.149-20.973 36.105-4.855 13.957-7.282 29.241-7.282 45.777 0 16.763 2.617 32.123 7.813 46.042 5.234 13.919 12.553 25.941 22.035 35.992 9.444 10.088 20.708 17.939 33.868 23.514 13.122 5.613 27.648 8.42 43.539 8.42 15.815 0 29.848-2.655 42.136-8.002 12.25-5.348 22.718-12.364 31.327-20.973 0 0-13.54-19.266-13.54-19.266-0.796-1.289-1.82-2.313-3.072-3.224zM208.593 772.267c0 0 187.164 187.733 187.164 187.733s381.724 0 381.724 0c0 0 0-682.667 0-682.667s-568.889 0-568.889 0c0 0 0 494.933 0 494.933zM284.444 353.185c0 0 417.185 0 417.185 0s0 530.963 0 530.963c0 0-189.478 0-189.478 0s-0.152-227.556-0.152-227.556c0 0-75.852 0-75.852 0s0 0.303 0 0.303c0 0-151.704 0-151.704 0s0-303.711 0-303.711zM436.186 732.444c0 0 0-60.833 0-60.833s0.569 212.537 0.569 212.537c0 0-0.607 0-0.607 0s-151.704-151.704-151.704-151.704c0 0 151.742 0 151.742 0zM297.946 152.823c13.54-5.499 25.107-13.16 34.74-22.945 9.595-9.823 17.067-21.58 22.376-35.271 5.31-13.653 7.927-28.634 7.927-45.018 0-16.346-2.617-31.327-7.927-45.018-5.31-13.653-12.781-25.41-22.376-35.309-9.633-9.861-21.201-17.484-34.74-22.945-13.502-5.461-28.52-8.192-45.056-8.192 0 0-82.754 0-82.754 0s0 222.967 0 222.967c0 0 82.754 0 82.754 0 16.536 0 31.554-2.769 45.056-8.268zM210.679-28.843c0 0 42.212 0 42.212 0 10.619 0 20.177 1.745 28.634 5.385 8.457 3.565 15.663 8.761 21.618 15.512 5.954 6.675 10.505 14.943 13.653 24.652 3.186 9.709 4.741 20.67 4.741 32.882 0 12.25-1.555 23.211-4.741 32.958-3.148 9.709-7.699 17.939-13.653 24.652s-13.16 11.909-21.618 15.512c-8.457 3.565-18.015 5.385-28.634 5.385 0 0-42.212 0-42.212 0s0-156.937 0-156.937zM436.11 131.167c9.633 10.164 21.239 18.129 34.778 23.817 13.502 5.727 28.482 8.571 44.904 8.571 10.999 0 21.39-1.327 31.099-3.944s18.622-6.334 26.738-11.112c8.078-4.779 15.398-10.581 21.845-17.408s11.947-14.45 16.46-22.907c4.513-8.42 7.927-17.56 10.278-27.42s3.527-20.252 3.527-31.175c0-16.346-2.617-31.479-7.889-45.397-5.234-13.919-12.705-25.979-22.3-36.143-9.595-10.202-21.163-18.129-34.702-23.817-13.54-5.727-28.558-8.571-45.056-8.571-16.422 0-31.403 2.844-44.904 8.571-13.54 5.689-25.145 13.615-34.778 23.817-9.671 10.164-17.18 22.225-22.452 36.143-5.31 13.919-8.002 29.051-8.002 45.397 0 16.384 2.693 31.516 8.002 45.397 5.272 13.919 12.781 26.017 22.452 36.181zM451.774 16.706c3.224-9.709 7.813-17.977 13.767-24.652 5.954-6.751 13.16-11.947 21.656-15.512 8.42-3.641 17.977-5.385 28.596-5.385s20.139 1.745 28.634 5.385c8.42 3.565 15.625 8.761 21.542 15.512 5.879 6.675 10.468 14.943 13.653 24.652s4.817 20.67 4.817 32.882c0 12.25-1.631 23.211-4.817 32.958-3.186 9.709-7.775 17.939-13.653 24.728-5.916 6.751-13.122 11.985-21.542 15.588-8.495 3.565-18.015 5.385-28.634 5.385s-20.177-1.82-28.596-5.385c-8.495-3.603-15.701-8.837-21.656-15.588-5.954-6.789-10.543-15.019-13.767-24.728-3.186-9.747-4.779-20.708-4.779-32.958 0-12.212 1.593-23.173 4.779-32.882z" />
<glyph unicode="&#xe603;" glyph-name="icon_04" d="M115.2-64c0 0 0 793.6 0 793.6s230.4 230.4 230.4 230.4c0 0 563.2 0 563.2 0s0-1024 0-1024c0 0-793.6 0-793.6 0zM371.2 883.2c0 0-156.8-179.2-156.8-179.2s156.8 0 156.8 0c0 0 0 179.2 0 179.2zM832 883.2c0 0-384 0-384 0s0-256 0-256c0 0-51.2 0-51.2 0s-25.6 0-25.6 0c0 0-179.2 0-179.2 0s0-614.4 0-614.4c0 0 640 0 640 0s0 870.4 0 870.4zM395.546 265.114c7.373-2.406 13.491-5.76 18.304-10.086s8.371-9.498 10.726-15.514c2.33-6.016 3.482-12.595 3.482-19.763 0-7.45-1.229-14.285-3.661-20.48s-6.093-11.52-10.982-15.974c-4.864-4.48-10.982-7.962-18.355-10.445-7.347-2.458-15.949-3.712-25.779-3.712 0 0-21.018 0-21.018 0s0-54.118 0-54.118c0 0-28.134 0-28.134 0s0 153.728 0 153.728c0 0 49.152 0 49.152 0 10.112 0 18.867-1.203 26.266-3.635zM348.262 191.462c0 0 21.018 0 21.018 0 5.171 0 9.677 0.64 13.491 1.971 3.84 1.306 7.040 3.2 9.574 5.632 2.56 2.432 4.454 5.427 5.709 8.934 1.254 3.482 1.869 7.424 1.869 11.75 0 4.096-0.614 7.834-1.869 11.162s-3.149 6.144-5.658 8.499c-2.509 2.33-5.683 4.122-9.523 5.35-3.814 1.254-8.346 1.869-13.594 1.869 0 0-21.018 0-21.018 0s0-55.168 0-55.168zM532.582 263.040c8.96-3.789 16.64-9.062 23.014-15.821 6.374-6.784 11.315-14.874 14.848-24.294 3.507-9.421 5.274-19.763 5.274-31.053 0-11.264-1.766-21.581-5.274-31.027-3.533-9.421-8.474-17.536-14.848-24.346s-14.054-12.083-23.014-15.846c-8.96-3.763-18.918-5.632-29.875-5.632 0 0-54.886 0-54.886 0s0 153.728 0 153.728c0 0 54.886 0 54.886 0 10.957 0 20.915-1.92 29.875-5.709zM474.726 137.779c0 0 27.981 0 27.981 0 7.040 0 13.363 1.229 18.97 3.712s10.394 6.067 14.336 10.701c3.968 4.608 6.963 10.291 9.062 16.998s3.149 14.259 3.149 22.682c0 8.448-1.050 16-3.149 22.707s-5.094 12.39-9.062 16.998c-3.942 4.659-8.73 8.218-14.336 10.701s-11.93 3.712-18.97 3.712c0 0-27.981 0-27.981 0s0-108.211 0-108.211zM704.333 245.99c0 0-72.218 0-72.218 0s0-45.491 0-45.491c0 0 60.954 0 60.954 0s0-22.835 0-22.835c0 0-60.954 0-60.954 0s0-62.643 0-62.643c0 0-30.387 0-30.387 0s0 153.728 0 153.728c0 0 102.605 0 102.605 0s0-22.758 0-22.758z" />
<glyph unicode="&#xe604;" glyph-name="icon_05" d="M689.948 129.764c0 0 0-67.394 0-67.394s90.302 0 90.302 0c0 0 0-33.83 0-33.83s-90.302 0-90.302 0c0 0 0-92.805 0-92.805s-45.018 0-45.018 0c0 0 0 227.745 0 227.745s152.007 0 152.007 0c0 0 0-33.716 0-33.716s-106.989 0-106.989 0zM227.556 772.267c0 0 187.164 187.733 187.164 187.733s381.724 0 381.724 0c0 0 0-682.667 0-682.667s-568.889 0-568.889 0c0 0 0 494.933 0 494.933zM303.407 353.185c0 0 417.185 0 417.185 0s0 530.963 0 530.963c0 0-189.478 0-189.478 0s-0.152-227.556-0.152-227.556c0 0-75.852 0-75.852 0s0 0.303 0 0.303c0 0-151.704 0-151.704 0s0-303.711 0-303.711zM455.149 732.444c0 0 0-60.833 0-60.833s0.569 212.537 0.569 212.537c0 0-0.607 0-0.607 0s-151.704-151.704-151.704-151.704c0 0 151.742 0 151.742 0zM339.475 158.094c10.923-3.565 19.987-8.533 27.117-14.943s12.402-14.071 15.891-22.983c3.451-8.913 5.158-18.66 5.158-29.279 0-11.036-1.82-21.163-5.423-30.341s-9.026-17.067-16.27-23.666c-7.206-6.637-16.27-11.795-27.193-15.474-10.885-3.641-23.628-5.499-38.191-5.499 0 0-31.137 0-31.137 0s0-80.175 0-80.175c0 0-41.681 0-41.681 0s0 227.745 0 227.745c0 0 72.818 0 72.818 0 14.981 0 27.951-1.783 38.912-5.385zM269.426 48.981c0 0 31.137 0 31.137 0 7.661 0 14.336 0.948 19.987 2.92 5.689 1.934 10.43 4.741 14.184 8.344 3.793 3.603 6.599 8.040 8.457 13.236 1.858 5.158 2.769 10.999 2.769 17.408 0 6.068-0.91 11.605-2.769 16.536s-4.665 9.102-8.382 12.591c-3.717 3.451-8.42 6.106-14.108 7.927-5.651 1.858-12.364 2.769-20.139 2.769 0 0-31.137 0-31.137 0s0-81.73 0-81.73zM542.492 155.022c13.274-5.613 24.652-13.426 34.095-23.438 9.444-10.050 16.763-22.035 21.997-35.992 5.196-13.957 7.813-29.279 7.813-46.004 0-16.687-2.617-31.972-7.813-45.966-5.234-13.957-12.553-25.979-21.997-36.068s-20.821-17.901-34.095-23.476c-13.274-5.575-28.027-8.344-44.26-8.344 0 0-81.313 0-81.313 0s0 227.745 0 227.745c0 0 81.313 0 81.313 0 16.232 0 30.985-2.844 44.26-8.457zM456.78-30.549c0 0 41.453 0 41.453 0 10.43 0 19.797 1.82 28.103 5.499s15.398 8.988 21.239 15.853c5.879 6.827 10.316 15.246 13.426 25.183s4.665 21.125 4.665 33.602c0 12.516-1.555 23.704-4.665 33.64s-7.547 18.356-13.426 25.183c-5.841 6.903-12.933 12.174-21.239 15.853s-17.673 5.499-28.103 5.499c0 0-41.453 0-41.453 0s0-160.313 0-160.313z" />
<glyph unicode="&#xe605;" glyph-name="icon_06" d="M938.077 615.843c-90.391-62.464-181.248-125.021-270.895-188.137-37.609-25.972-101.283-79.22-148.108-79.22h-1.21c-46.918 0-110.499 53.248-148.108 79.313-89.647 63.023-180.503 125.58-270.243 188.044-41.053 27.834-99.514 93.184-99.514 145.78 0 56.692 30.72 105.379 92.625 105.379h851.782c50.362 0 92.532-41.612 92.532-92.532 0-64.884-47.942-123.252-98.863-158.627zM1036.94 144.803c0-50.921-41.612-92.532-92.532-92.532h-851.782c-50.921 0-92.625 41.612-92.625 92.532v459.497c17.408-19.084 37.050-35.933 58.461-50.362 96.070-65.35 193.257-130.793 287.558-199.68 48.593-35.84 108.73-79.779 171.846-79.779h1.21c63.116 0 123.252 44.032 171.939 79.779 94.301 68.236 191.488 134.237 288.209 199.68 20.759 14.429 40.495 31.279 57.809 50.362v-459.497z" />
<glyph unicode="&#xe606;" glyph-name="icon_07" d="M1000.262 198.423l-12.474-30.627-115.34-20.48c-18.060-67.956-79.779-118.412-153.972-118.412v-19.921c0-11.264-8.751-20.015-20.015-20.015h-39.936c-11.171 0-19.921 8.751-19.921 20.015v359.052c0 11.264 8.751 19.921 19.921 19.921h39.936c11.264 0 20.015-8.751 20.015-19.921v-19.921c59.857 0 111.616-32.954 138.985-81.734l42.449 7.447c11.729 38.726 17.967 78.662 17.967 120.367 0 188.323-186.368 353.001-399.081 353.001-212.62 0-399.081-164.678-399.081-353.001 0-41.798 6.237-81.641 18.060-120.367l42.449-7.447c27.369 48.687 79.22 81.734 139.078 81.734v19.921c0 11.264 8.751 19.921 19.921 19.921h39.936c11.264 0 19.921-8.751 19.921-19.921v-359.145c0-11.264-8.751-20.015-19.921-20.015h-39.936c-11.264 0-19.921 8.751-19.921 20.015v19.921c-74.193 0-135.913 50.455-154.065 118.412l-115.34 20.573-12.474 30.627c-24.948 61.719-37.423 127.814-37.423 195.77 0 256.372 237.568 472.716 518.796 472.716s518.889-216.343 518.889-472.716c0-67.956-12.567-134.051-37.423-195.77z" />
<glyph unicode="&#xe607;" glyph-name="icon_08" d="M522.894 371.745v152.511h65.362v-152.511h-65.362zM435.745 524.255h65.362v-152.511h-65.362v152.511z" />
<glyph unicode="&#xe608;" glyph-name="icon_09" d="M1001.418 50.212c-15.308-35.61-56.020-58.843-88.699-77.082-42.884-23.342-86.528-37.13-135.274-37.13-67.637 0-128.76 27.576-190.534 50.266-44.404 15.959-87.288 35.61-127.349 60.254-123.549 76.431-272.611 225.493-349.042 349.15-24.645 39.953-44.404 82.836-60.363 127.24-22.582 61.774-50.158 122.897-50.158 190.534 0 48.746 13.788 92.39 37.13 135.274 18.131 32.679 41.472 73.5 77.082 88.699 23.993 10.965 74.911 22.582 101.075 22.582 5.103 0 10.205 0 15.308-2.171 15.308-5.103 31.267-40.712 38.541-55.26 23.233-41.472 45.707-83.596 69.808-124.417 11.617-18.891 33.439-42.124 33.439-64.706 0-44.404-131.583-109.001-131.583-148.302 0-19.651 18.131-45.164 28.336-62.534 73.5-132.343 165.13-223.973 297.472-297.472 17.479-10.205 42.884-28.444 62.534-28.444 39.301 0 104.115 131.691 148.411 131.691 22.473 0 45.815-21.822 64.706-33.547 40.712-23.993 82.945-46.466 124.417-69.808 14.331-7.165 49.941-23.233 55.043-38.541 2.28-5.103 2.28-10.205 2.28-15.308 0-25.947-11.617-76.865-22.582-100.967z" />
<glyph unicode="&#xe609;" glyph-name="pin" d="M509.44 951.71c-214.577 0-389.169-173.373-389.169-386.511 0-249.856 312.076-547.206 347.672-580.291l45.251-42.082 41.448 45.836c3.048 3.365 7.802 8.387 13.946 14.897 222.062 235.203 330.021 418.914 330.021 561.64 0 213.114-174.592 386.511-389.169 386.511zM507.587 116.931c-100.791 104.155-265.411 304.494-265.411 448.268 0 145.896 119.881 264.606 267.264 264.606s267.264-118.711 267.264-264.606c0-71.753-47.592-207.141-269.117-448.268zM643.072 571.538c0-69.575-56.402-125.976-125.976-125.976s-125.976 56.402-125.976 125.976c0 69.575 56.402 125.976 125.976 125.976s125.976-56.402 125.976-125.976z" />
<glyph unicode="&#xe60a;" glyph-name="pin1" d="M509.44 951.71c-214.577 0-389.169-173.373-389.169-386.511 0-249.856 312.076-547.206 347.672-580.291l45.251-42.082 41.448 45.836c3.048 3.365 7.802 8.387 13.946 14.897 222.062 235.203 330.021 418.914 330.021 561.64 0 213.114-174.592 386.511-389.169 386.511zM507.587 116.931c-100.791 104.155-265.411 304.494-265.411 448.268 0 145.896 119.881 264.606 267.264 264.606s267.264-118.711 267.264-264.606c0-71.753-47.592-207.141-269.117-448.268zM643.072 571.538c0-69.575-56.402-125.976-125.976-125.976s-125.976 56.402-125.976 125.976c0 69.575 56.402 125.976 125.976 125.976s125.976-56.402 125.976-125.976z" />
<glyph unicode="&#xe60b;" glyph-name="pin2" d="M665.23 471.073l-108.13-230.139c-6.231-13.094-19.892-21.112-34.184-21.112-14.271 0-27.931 8.018-33.857 21.112l-108.435 230.139c-7.734 16.362-9.826 35.077-9.826 53.226 0 84.142 68.063 152.249 152.118 152.249 84.077 0 152.14-68.107 152.14-152.249 0-18.149-2.092-36.864-9.826-53.226zM522.915 600.423c-41.875 0-76.059-34.206-76.059-76.125 0-41.94 34.184-76.125 76.059-76.125 41.897 0 76.059 34.184 76.059 76.125 0 41.919-34.162 76.125-76.059 76.125z" />
<glyph unicode="&#xe60c;" glyph-name="ref-01" d="M952.93 899.121c-33.987 39.838-80.408 60.879-134.266 60.879h-135.314c-46.836 0-71.924-32.329-90.234-55.93-19.432-25.039-32.28-41.594-69.291-41.594-49.42 0-63.439 17.554-82.798 41.862-17.676 22.162-44.373 55.662-95.915 55.662h-135.973c-42.325 0-80.482-16.969-110.373-49.103-103.326-110.982-86.796-386.584-84.553-417.646l3.243-45.251h142.921v-512h707.048v512h139.166l6.534 41.106c4.632 29.33 42.423 289.841-60.197 410.014zM523.825 764.952c19.383 0 36.084 2.828 51.005 7.192v-738.621h-121.49v742.619c19.456-6.68 42.301-11.191 70.485-11.191zM364.788 843.532c4.389-5.51 9.63-11.8 15.409-18.286v-791.723h-121.539v828.952h86.455c3.243 0 5.144-0.731 19.675-18.944zM109.568 545.499c-1.755 103.278 12.020 246.857 60.587 298.984 4.949 5.315 10.045 9.118 15.36 12.020v-311.003h-75.947zM647.973 33.524v784.311c8.802 9.362 16.091 18.578 22.187 26.429 4.706 6.071 11.557 14.921 15.409 18.213h83.895v-825.368h0.439v-3.584h-121.929zM921.819 545.499h-79.214v313.515c14.019-3.925 25.941-11.264 36.108-23.162 52.468-61.318 51.151-205.653 43.106-290.353z" />
<glyph unicode="&#xe60d;" glyph-name="skype" d="M768.025-64c-58.719 0-112.76 20.004-156.053 53.345-31.947-6.668-65.885-10.649-99.922-10.649-259.359 0-469.354 209.896-469.354 469.354 0 34.037 3.981 67.975 10.649 100.021-33.34 43.293-53.345 97.334-53.345 155.954 0 141.324 114.651 255.975 255.975 255.975 58.619 0 112.561-20.004 155.954-53.345 32.047 6.668 66.084 10.649 100.121 10.649 259.259 0 469.255-209.896 469.255-469.354 0-34.037-3.881-67.975-10.649-100.021 33.44-43.392 53.444-97.434 53.444-155.954 0-141.324-114.751-255.975-256.075-255.975zM574.65 514.034l-69.269 15.924c-50.658 12.042-88.775 20.8-88.775 59.316 0 35.231 37.321 51.454 96.040 51.454 104.799 0 106.689-76.733 171.38-76.733 43.392 0 69.269 34.037 69.269 72.652 0 76.733-127.291 126.694-253.288 126.694-115.249 0-249.307-50.060-249.307-185.413 0-111.964 74.643-151.973 171.977-175.361l97.434-23.886c59.217-14.73 95.941-21.398 95.941-63.994 0-33.938-38.118-60.013-96.737-60.013-123.31 0-129.978 102.609-201.337 102.609-46.677 0-67.378-33.34-67.378-69.965 0-82.008 125.3-148.689 275.382-148.689 125.3 0 255.975 62.7 255.975 198.052 0.1 115.945-112.661 155.954-207.308 177.351z" />
<glyph unicode="&#xe60e;" glyph-name="stats" d="M186.182 28.812h-186.182v372.457h186.182v-372.457zM465.548 28.812h-186.182v744.913h186.182v-744.913zM745.007 28.812h-186.368v558.732h186.368v-558.732zM1024.279 28.812h-186.182v838.097h186.182v-838.097z" />
<glyph unicode="&#xe60f;" glyph-name="ticket" d="M487.533 252.808c-12.114-11.852-31.962-11.852-43.814 0l-30.546 30.524c18.171 18.171 18.171 47.692 0 65.863-18.149 18.171-47.692 18.171-65.841 0l-30.284 30.524c-12.114 11.852-12.114 31.722 0 43.836l219.659 219.397c11.852 12.114 31.722 12.114 43.836 0l30.262-30.262c-18.171-18.171-18.171-47.714 0-65.885 18.149-18.149 47.714-18.149 65.863 0l30.524-30.262c11.852-12.114 11.852-31.984 0-43.836l-219.659-219.899zM641.547 468.11c6.079 6.057 6.079 15.73 0 21.787l-87.672 87.672c-5.795 5.817-15.97 5.817-21.765 0l-149.678-149.657c-6.057-6.057-6.057-15.752 0-21.809l87.672-87.65c2.919-2.919 6.776-4.379 10.894-4.379s7.974 1.46 10.894 4.379l149.657 149.657zM619.52 479.003l-138.523-138.523-76.539 76.539 138.545 138.523 76.517-76.539z" />
<glyph unicode="&#xe610;" glyph-name="icon_calendar" horiz-adv-x="1088" d="M1023.936-64c0 0-959.936 0-959.936 0-35.392 0-64 28.608-64 64 0 0 0 576 0 576s1088 0 1088 0c0 0 0-576 0-576 0-35.392-28.672-64-64.064-64zM320 448c0 0-192 0-192 0s0-128 0-128c0 0 192 0 192 0s0 128 0 128zM320 192c0 0-192 0-192 0s0-128 0-128c0 0 192 0 192 0s0 128 0 128zM640 448c0 0-192 0-192 0s0-128 0-128c0 0 192 0 192 0s0 128 0 128zM640 192c0 0-192 0-192 0s0-128 0-128c0 0 192 0 192 0s0 128 0 128zM960 448c0 0-192 0-192 0s0-128 0-128c0 0 192 0 192 0s0 128 0 128zM960 192c0 0-192 0-192 0s0-128 0-128c0 0 192 0 192 0s0 128 0 128zM0 832c0 35.392 28.608 64 64 64 0 0 64 0 64 0s0-64 0-64c0-35.392 28.608-64 63.936-64 0 0 128.064 0 128.064 0 35.328 0 64 28.608 64 64 0 0 0 64 0 64s320 0 320 0c0 0 0-64 0-64 0-35.392 28.608-64 64-64 0 0 128 0 128 0 35.328 0 64 28.608 64 64 0 0 0 64 0 64s63.936 0 63.936 0c35.392 0 64.064-28.608 64.064-64 0 0 0-192 0-192s-1088 0-1088 0c0 0 0 192 0 192zM768 960c0 0 128 0 128 0s0-128 0-128c0 0-128 0-128 0s0 128 0 128zM191.936 960c0 0 128.064 0 128.064 0s0-128 0-128c0 0-128.064 0-128.064 0s0 128 0 128z" />
<glyph unicode="&#xe611;" glyph-name="icon_cart" horiz-adv-x="1170" d="M1170.286 448.293c0-23.259-17.554-43.666-40.082-46.519 0 0-734.208-88.795-734.208-88.795 3.511-16.75 9.070-33.426 9.070-50.907 0-16.75-24.43-24.942-31.671-39.863 0 0 665.746 0 665.746 0 25.381 0 46.299-21.577 46.299-47.689 0-26.039-20.919-47.689-46.299-47.689 0 0-741.010 0-741.010 0-25.381 0-46.299 21.65-46.299 47.689 0 23.113 49.883 71.534 61.147 94.135 0 0-124.489 598.674-124.489 598.674s-143.506 0-143.506 0c-24.576 0-44.983 21.138-44.983 46.592s20.407 46.519 44.983 46.519c0 0 180.078 0 180.078 0 47.104 0 73.289-58.222 80.165-93.111 0 0 821.321 0 821.321 0 23.918 0 43.739-21.138 43.739-46.592 0 0 0-372.443 0-372.443zM344.43-63.854c-50.615 0-92.599 43.227-92.599 95.378s41.984 95.305 92.599 95.305c50.688 0 92.599-43.154 92.599-95.305s-41.911-95.378-92.599-95.378zM992.841-63.854c-50.688 0-92.599 43.227-92.599 95.378s41.911 95.305 92.599 95.305c50.615 0 92.599-43.154 92.599-95.305s-41.984-95.378-92.599-95.378z" />
<glyph unicode="&#xe612;" glyph-name="icon_droplist" horiz-adv-x="1195" d="M598.869-61.44c0 0-597.845 1023.829-597.845 1023.829s1195.52 0 1195.52 0c0 0-597.675-1023.829-597.675-1023.829z" />
<glyph unicode="&#xe613;" glyph-name="icon_hd" horiz-adv-x="2048" d="M2009.088 244.992c-25.771-62.464-63.061-117.589-110.507-163.669-47.445-45.909-105.131-82.176-171.264-107.349-65.621-25.259-138.837-38.059-217.685-38.059 0 0-399.189 0.085-399.189 0.085s0 1024 0 1024c0 0 399.189 0.597 399.189 0.597 78.848 0 152.235-12.885 217.941-38.4 66.219-25.685 123.733-61.781 170.837-107.349 47.616-45.995 84.907-100.949 110.677-163.243 25.856-62.379 38.912-130.731 38.912-203.008 0-72.704-13.056-141.227-38.912-203.605zM1697.109 552.96c-9.643 28.843-22.613 52.565-39.851 72.107-16.725 18.859-36.437 32.939-60.416 42.923-24.832 10.496-54.016 15.701-87.211 15.701 0 0-85.419 0-85.419 0s0-470.955 0-470.955c0 0 85.419 0 85.419 0 33.195 0 62.379 5.291 87.040 15.701 24.235 10.24 43.947 24.235 60.587 42.923 16.811 19.285 30.208 43.691 39.851 72.533 9.813 29.952 14.848 65.28 14.848 104.704 0 38.997-5.035 74.155-14.848 104.363zM625.067 345.6c0 0-312.576 0-312.576 0s0-409.6 0-409.6c0 0-313.6-0.085-313.6-0.085s0 1024.683 0 1024.683c0 0 313.6-0.597 313.6-0.597s0-409.6 0-409.6c0 0 312.576 0 312.576 0s0 409.6 0 409.6c0 0 312.491 0 312.491 0s0-1024 0-1024c0 0-312.491 0-312.491 0s0 409.6 0 409.6z" />
<glyph unicode="&#xe614;" glyph-name="icon_sd" horiz-adv-x="1792" d="M1753.088 244.992c-25.771-62.464-63.061-117.589-110.507-163.669-47.445-45.909-105.131-82.176-171.264-107.349-65.621-25.259-138.837-38.059-217.685-38.059 0 0-399.189 0.085-399.189 0.085s0 1024 0 1024c0 0 399.189 0.597 399.189 0.597 78.848 0 152.235-12.885 217.941-38.4 66.219-25.685 123.733-61.781 170.837-107.349 47.616-45.995 84.907-100.949 110.677-163.243 25.856-62.379 38.912-130.731 38.912-203.008 0-72.704-13.056-141.227-38.912-203.605zM1441.109 552.96c-9.643 28.843-22.613 52.565-39.851 72.107-16.725 18.859-36.437 32.939-60.416 42.923-24.832 10.496-54.016 15.701-87.211 15.701 0 0-85.419 0-85.419 0s0-470.955 0-470.955c0 0 85.419 0 85.419 0 33.195 0 62.379 5.291 87.040 15.701 24.235 10.24 43.947 24.235 60.587 42.923 16.811 19.285 30.208 43.691 39.851 72.533 9.813 29.952 14.848 65.28 14.848 104.704 0 38.997-5.035 74.155-14.848 104.363zM589.397 614.997c-22.784 0-45.227 6.656-66.901 19.883-8.96 5.547-19.456 11.52-31.659 18.091-9.557 4.949-21.76 10.24-35.584 15.104-9.557 3.413-65.963 23.723-83.029-3.925-16.213-26.283 44.885-50.859 64.683-57.088 23.552-6.997 53.077-11.179 78.421-19.968 26.795-9.301 53.589-20.48 80.043-33.451 30.72-15.36 57.771-34.219 80.811-56.235 25.003-23.552 45.397-52.736 60.501-86.443 15.275-34.219 23.040-74.837 23.040-120.832 0-48.043-8.533-93.867-25.344-136.277-17.408-43.861-42.752-82.347-75.349-114.432-32.683-32.512-73.045-58.283-119.979-76.459-46.677-17.92-98.731-27.051-154.88-27.051-31.915 0-64.341 3.328-96.341 9.984-31.744 6.485-62.123 15.445-90.283 26.539-29.099 11.52-57.003 25.685-83.029 42.155-26.368 16.213-50.688 35.584-71.595 57.259 0 0-43.52 45.141-43.52 45.141s38.827 49.237 38.827 49.237c94.976 120.32 110.336 134.144 149.589 134.144 25.259 0 50.432-8.192 74.752-24.405 11.264-7.424 24.405-15.872 39.168-25.003 11.008-6.741 25.088-13.483 40.96-19.627 11.605-4.608 27.221-6.912 46.165-6.912 22.784 0 39.936 3.925 48.299 11.008 5.632 4.693 15.957 35.243-12.288 51.712-13.739 8.021-30.635 13.227-48.64 18.091-24.747 7.253-49.493 14.763-74.581 22.784-26.453 8.448-53.589 19.285-80.555 32.171-31.147 14.592-59.051 34.389-82.944 58.539-24.491 24.32-44.629 54.955-59.392 90.709-14.763 34.816-22.357 77.824-22.357 127.317 0 41.301 8.277 81.92 24.491 121.003 16.555 39.253 40.875 74.325 72.363 104.448 31.829 30.123 70.229 54.101 114.176 71.339 44.117 17.579 94.72 26.709 149.845 26.709 59.904 0 116.736-9.643 168.875-28.672 53.333-19.371 99.328-47.019 136.619-82.091 0 0 44.544-41.899 44.544-41.899s-33.963-50.517-33.963-50.517c-83.883-124.843-101.376-142.080-143.957-142.080z" />
<glyph unicode="&#xe615;" glyph-name="icon_abuse" d="M896 960c0 0-768 0-768 0-70.72 0-128-57.28-128-128 0 0 0-896 0-896s256 256 256 256c0 0 640 0 640 0 70.72 0 128 57.28 128 128 0 0 0 512 0 512 0 70.72-57.28 128-128 128zM768 448c0 0-512 0-512 0s0 64 0 64c0 0 512 0 512 0s0-64 0-64zM768 640c0 0-512 0-512 0s0 64 0 64c0 0 512 0 512 0s0-64 0-64z" />
<glyph unicode="&#xe616;" glyph-name="icon_bullet" d="M967.111 163.556c0 0-113.778 0-113.778 0s0-113.778 0-113.778c0-31.403-25.486-56.889-56.889-56.889s-56.889 25.486-56.889 56.889c0 0 0 113.778 0 113.778s-113.778 0-113.778 0c-31.403 0-56.889 25.486-56.889 56.889s25.486 56.889 56.889 56.889c0 0 113.778 0 113.778 0s0 113.778 0 113.778c0 31.403 25.486 56.889 56.889 56.889s56.889-25.486 56.889-56.889c0 0 0-113.778 0-113.778s113.778 0 113.778 0c31.403 0 56.889-25.486 56.889-56.889s-25.486-56.889-56.889-56.889zM341.333 334.222c-181.077 0-327.794 75.548-339.172 170.667 0 0-2.162 0-2.162 0s0 284.444 0 284.444c0 0 20.878 0 20.878 0 47.047 66.162 172.032 113.778 320.455 113.778s273.408-47.616 320.455-113.778c0 0 20.878 0 20.878 0s0-284.444 0-284.444c0 0-2.162 0-2.162 0-11.378-95.118-158.094-170.667-339.172-170.667zM568.889 504.889c0 0 0 101.205 0 101.205-60.473-27.25-139.719-44.316-227.556-44.316s-167.083 17.067-227.556 44.316c0 0 0-101.205 0-101.205s-53.305 0-53.305 0c61.099-48.128 163.612-79.986 280.86-79.986s219.762 31.858 280.86 79.986c0 0-53.305 0-53.305 0z" />
<glyph unicode="&#xe617;" glyph-name="icon_bullets" d="M824 378.88c-17.536-78.912-64-146.816-127.936-192-31.68-143.424-159.104-250.88-312.064-250.88-176.704 0-320 143.296-320 320 0 108.032 53.888 203.136 135.936 261.12 17.344 78.656 64.192 145.728 127.68 190.976 31.232 143.936 159.040 251.904 312.384 251.904 176.704 0 320-143.296 320-320 0-108.096-53.952-203.2-136-261.12zM194.176 426.368c-40.704-45.312-66.176-104.64-66.176-170.368 0-141.376 114.624-256 256-256 101.952 0 189.248 60.032 230.4 146.304-32.32-11.008-66.368-18.304-102.4-18.304-169.344 0-306.496 131.904-317.824 298.368zM256 448c0-141.376 114.624-256 256-256 101.952 0 189.248 60.032 230.4 146.304-32.32-11.008-66.368-18.304-102.4-18.304-169.344 0-306.496 131.904-317.824 298.368-40.704-45.376-66.176-104.64-66.176-170.368z" />
<glyph unicode="&#xe618;" glyph-name="icon_danger" d="M983.68 32c-25.6 51.392-422.528 864-422.528 864s-27.328 64-62.528 64c-35.264 0-62.592-64-62.592-64s-395.136-808-422.464-864c-27.392-56-15.744-96 46.912-96 62.592 0 813.568 0 876.224 0 62.592 0 76.288 36.992 46.976 96zM498.624 64c-34.624 0-62.592 28.608-62.592 64s27.968 64 62.592 64c34.56 0 62.528-28.608 62.528-64s-27.968-64-62.528-64zM562.88 320c0-35.392-27.968-64-62.592-64-34.56 0-62.592 28.608-62.592 64 0 0 0 256 0 256 0 35.392 28.032 64 62.592 64 34.624 0 62.592-28.608 62.592-64 0 0 0-256 0-256z" />
<glyph unicode="&#xe619;" glyph-name="icon_delete" d="M635.008 174.784c-23.424-135.488-140.8-238.784-283.008-238.784-159.040 0-288 128.96-288 288s128.96 288 288 288c11.136 0 21.696-2.048 32.576-3.264 0 0-0.576 3.264-0.576 3.264s576 0 576 0c0 0 0-256 0-256s-324.992-81.216-324.992-81.216zM639.104 683.456c0 0 193.728 211.648 193.728 211.648s64.064-106.56 64.064-106.56c0 0-193.728-211.648-193.728-211.648s-64.064 106.56-64.064 106.56zM448 960c0 0 128 0 128 0s0-192 0-192c0 0-128 0-128 0s0 192 0 192zM127.104 788.544c0 0 64.064 106.56 64.064 106.56s193.728-211.648 193.728-211.648c0 0-64.064-106.56-64.064-106.56s-193.728 211.648-193.728 211.648z" />
<glyph unicode="&#xe61a;" glyph-name="icon_dislike" d="M932.48 384c0 0-239.936 0-239.936 0s0-384 0-384c0-35.392-26.816-64-59.968-64 0 0-59.968 0-59.968 0-33.152 0-59.968 28.608-59.968 64 0 0 0 64 0 64 0 131.264-74.176 243.648-179.968 292.992 0 0-59.968 27.008-59.968 91.008 0 0 0 448 0 448s59.968 0 59.968 0 120 64 179.968 64c0 0 359.808 0 359.808 0 33.152 0 53.44-22.016 60.032-64 0 0 59.968-448 59.968-448 4.672-36.992-26.88-64-59.968-64zM152.768 320c0 0-119.936 0-119.936 0s0 640 0 640c0 0 119.936 0 119.936 0 33.152 0 59.968-28.608 59.968-64 0 0 0-512 0-512 0-35.392-26.816-64-59.968-64zM122.816 448c-16.64 0-30.016-14.272-30.016-32 0-17.6 13.376-32 30.016-32 16.512 0 29.952 14.4 29.952 32 0 17.728-13.44 32-29.952 32z" />
<glyph unicode="&#xe61b;" glyph-name="icon_en" d="M951.091 140.254c-10.923 0-20.002 1.707-27.375 5.257-7.441 3.55-14.746 9.626-22.050 18.364 0 0-288.017 367.002-288.017 367.002 1.161-10.923 1.911-21.572 2.321-31.812 0.41-10.308 0.614-19.934 0.614-28.945 0 0 0-329.865 0-329.865s-124.928 0-124.928 0c0 0 0 615.356 0 615.356s74.615 0 74.615 0c6.144 0 11.332-0.273 15.497-0.819 4.233-0.546 7.987-1.638 11.332-3.209 3.345-1.502 6.554-3.755 9.626-6.554s6.622-6.622 10.513-11.401c0 0 290.543-369.527 290.543-369.527-1.434 11.81-2.389 23.279-2.935 34.406s-0.819 21.641-0.819 31.471c0 0 0 325.632 0 325.632s124.86 0 124.86 0c0 0 0-615.356 0-615.356s-73.796 0-73.796 0zM-0.751 755.61c0 0 393.216 0 393.216 0s0-109.773 0-109.773c0 0-250.675 0-250.675 0s0-143.633 0-143.633c0 0 191.966 0 191.966 0s0-105.609 0-105.609c0 0-191.966 0-191.966 0s0-146.569 0-146.569c0 0 250.675 0 250.675 0s0-109.773 0-109.773c0 0-393.216 0-393.216 0s0 615.356 0 615.356z" />
<glyph unicode="&#xe61c;" glyph-name="icon_fight" d="M939.008 33.92c0 0-29.632-97.984-29.632-97.984s-584.32 5.44-584.32 5.44c0 0 44.608 38.080-33.344 103.488 0 0-167.36 201.6-256.448 354.176 0 0-69.056 91.712-13.12 180.8 0 0 1.024-1.408 1.024-1.408 4.224 4.864 44.864 52.16 66.112 66.56 22.592 19.968 79.296 48.64 79.296 48.64 9.6 3.2 18.88 5.248 27.328 5.248 29.504 0 80.896-41.088 66.496-116.992 0 0 3.712-97.984-53.696-159.232 0 0 26.304-32.384 46.656-13.888 35.84 28.48 28.672 104.512 35.264 132.672 0 0 49.344 0 49.344 0 22.144 0 42.432 7.936 58.176 20.992 1.152-43.392 46.336-78.464 101.76-78.464 0 0 28.16 0 28.16 0 26.432 0 50.368 8 68.48 20.928 0 0 0-18.368 0-18.368 0-44.224 45.824-80.064 102.016-80.064 0 0 28.16 0 28.16 0 26.432 0 50.368 8.064 68.48 20.992 0 0 0-43.84 0-43.84 0-44.224 45.824-80.192 101.952-80.192 0 0 28.16 0 28.16 0 47.168 0 86.784 25.28 98.432 59.52-7.744-103.808-29.76-226.24-84.736-329.024zM925.312 379.52c0 0-28.16 0-28.16 0-37.12 0-68.48 21.76-68.48 47.424 0 0 0 103.040 0 103.040s0 195.264 0 195.264c0 25.728 31.36 47.424 68.48 47.424 0 0 28.16 0 28.16 0 37.12 0 68.544-21.76 68.544-47.424 0 0 0-298.304 0-298.304 0-25.728-31.424-47.424-68.544-47.424zM726.72 482.624c0 0-28.16 0-28.16 0-37.184 0-68.544 21.696-68.544 47.36 0 0 0 77.504 0 77.504s0 220.8 0 220.8c0 25.728 31.36 47.424 68.544 47.424 0 0 28.16 0 28.16 0 37.12 0 68.48-21.76 68.48-47.424 0 0 0-103.040 0-103.040s0-195.2 0-195.2c0-25.728-31.36-47.424-68.48-47.424zM528.064 560.128c0 0-28.16 0-28.16 0-37.056 0-68.48 21.696-68.544 47.36 0 0 0 298.304 0 298.304 0 25.664 31.488 47.424 68.544 47.424 0 0 28.16 0 28.16 0 37.184 0 68.48-21.76 68.48-47.424 0 0 0-77.504 0-77.504s0-220.736 0-220.736c0-25.728-31.296-47.424-68.48-47.424zM339.904 614.272c0 0-44.672 0-44.672 0 5.184 44.608-1.28 76.288-19.968 98.368-14.848 17.536-36.8 27.2-61.76 27.2-8.576 0-17.472-1.28-26.432-3.392 1.344 39.552 4.16 77.824 9.664 98.368 0 0 19.776 163.904 191.808 116.736 7.104-10.048 9.536-28.736 9.536-45.76 0 0 0-247.616 0-247.616-6.848-25.216-30.272-43.904-58.176-43.904z" />
<glyph unicode="&#xe61d;" glyph-name="icon_force" d="M800.711 937.358c-8.59 14.734-24.576 23.154-43.691 23.154 0 0-235.065 0-235.065 0-28.046 0-57.173-18.261-69.291-43.52 0 0-249.287-517.291-249.287-517.291-8.135-16.896-7.623-34.759 1.252-48.981 8.875-14.279 24.69-22.642 43.406-23.040 0 0 184.434-2.332 184.434-2.332s-133.518-333.54-133.518-333.54c-3.3-8.306-10.183-25.771 2.105-43.691 5.348-7.851 14.62-12.629 24.121-12.629 0 0 2.105 0 2.105 0 18.034 0 28.9 13.653 34.133 20.196 0 0 431.445 541.412 431.445 541.412 18.432 23.097 10.809 43.804 8.021 49.778-2.844 5.803-14.45 24.69-43.861 24.69 0 0-137.273 0-137.273 0s179.655 316.359 179.655 316.359c9.387 16.668 9.899 34.702 1.308 49.436z" />
<glyph unicode="&#xe61e;" glyph-name="icon_fullscreen" d="M903.529 56.471c0 0-180.706 0-180.706 0s0 120.471 0 120.471c0 0 180.706 0 180.706 0s0 180.706 0 180.706c0 0 120.471 0 120.471 0s0-180.706 0-180.706c0 0 0-120.471 0-120.471s-120.471 0-120.471 0zM903.529 719.059c0 0-180.706 0-180.706 0s0 120.471 0 120.471c0 0 180.706 0 180.706 0s120.471 0 120.471 0c0 0 0-120.471 0-120.471s0-180.706 0-180.706c0 0-120.471 0-120.471 0s0 180.706 0 180.706zM0 56.471c0 0 0 120.471 0 120.471s0 180.706 0 180.706c0 0 120.471 0 120.471 0s0-180.706 0-180.706c0 0 180.706 0 180.706 0s0-120.471 0-120.471c0 0-180.706 0-180.706 0s-120.471 0-120.471 0zM120.471 538.353c0 0-120.471 0-120.471 0s0 180.706 0 180.706c0 0 0 120.471 0 120.471s120.471 0 120.471 0c0 0 180.706 0 180.706 0s0-120.471 0-120.471c0 0-180.706 0-180.706 0s0-180.706 0-180.706z" />
<glyph unicode="&#xe61f;" glyph-name="icon_hd-player" d="M1004.902 346.522c-12.698-31.232-31.027-58.829-54.323-81.869-23.347-22.938-51.712-41.062-84.173-53.709-32.256-12.595-68.25-18.995-107.008-18.995 0 0-196.198 0.051-196.198 0.051s0 512 0 512c0 0 196.198 0.307 196.198 0.307 38.758 0 74.803-6.451 107.11-19.2 32.563-12.851 60.826-30.874 83.968-53.658 23.398-22.989 41.728-50.483 54.426-81.613 12.698-31.232 19.098-65.434 19.098-101.53 0-36.352-6.4-70.605-19.098-101.786zM851.558 500.48c-4.762 14.438-11.11 26.317-19.61 36.096-8.192 9.37-17.92 16.384-29.645 21.453-12.237 5.171-26.624 7.782-42.906 7.782 0 0-41.933 0-41.933 0s0-235.469 0-235.469c0 0 41.933 0 41.933 0 16.282 0 30.669 2.662 42.803 7.885 11.878 5.12 21.606 12.134 29.747 21.504 8.294 9.574 14.848 21.76 19.61 36.198 4.813 14.95 7.27 32.666 7.27 52.378 0 19.507-2.458 37.069-7.27 52.173zM307.2 396.8c0 0-153.6 0-153.6 0s0-204.8 0-204.8c0 0-154.163-0.051-154.163-0.051s0 512.358 0 512.358c0 0 154.163-0.307 154.163-0.307s0-204.8 0-204.8c0 0 153.6 0 153.6 0s0 204.8 0 204.8c0 0 153.6 0 153.6 0s0-512 0-512c0 0-153.6 0-153.6 0s0 204.8 0 204.8z" />
<glyph unicode="&#xe620;" glyph-name="icon_interesting" d="M830.016 960c0 0-638.4 0-638.4 0-35.264 0-63.808-28.608-63.808-64 0 0 0-896 0-896 0-36.992-0.256-64 27.904-64 24.576 0 64.832 36.992 99.776 64 0 0 255.36 192 255.36 192s255.36-192 255.36-192c31.936-22.016 72.704-64 96.768-64 32.896 0 29.248 26.368 30.912 64 1.344 33.984 0 896 0 896 0 35.392-28.544 64-63.872 64zM607.36 515.392c0 0 63.296-195.52 63.296-195.52s-159.296 119.488-159.296 119.488c0 0-159.872-119.488-159.872-119.488s63.616 193.856 63.616 193.856c0 0-159.36 126.272-159.36 126.272s191.36 0 191.36 0c0 0 64 192 64 192s64.192-192 64.192-192c0 0 191.424 0 191.424 0s-159.36-124.608-159.36-124.608z" />
<glyph unicode="&#xe621;" glyph-name="icon_like" d="M932.416 0c-6.528-41.984-26.816-64-59.968-64 0 0-359.808 0-359.808 0-59.968 0-120 64-179.968 64 0 0-59.968 0-59.968 0s0 448 0 448c0 64 59.968 91.008 59.968 91.008 105.792 49.344 179.968 161.728 179.968 292.992 0 0 0 64 0 64 0 35.392 26.816 64 59.968 64 0 0 59.968 0 59.968 0 33.152 0 59.968-28.608 59.968-64 0 0 0-384 0-384s239.872 0 239.872 0c33.152 0 64.704-27.008 60.032-64 0 0-60.032-448-60.032-448zM152.768-64c0 0-119.936 0-119.936 0s0 640 0 640c0 0 119.936 0 119.936 0 33.152 0 59.968-28.608 59.968-64 0 0 0-512 0-512 0-35.392-26.816-64-59.968-64zM122.816 512c-16.64 0-30.016-14.4-30.016-32 0-17.728 13.376-32 30.016-32 16.512 0 29.952 14.272 29.952 32 0 17.6-13.44 32-29.952 32z" />
<glyph unicode="&#xe622;" glyph-name="icon_moments" d="M628.224 128c-26.432-74.432-96.768-128-180.224-128-106.048 0-192 85.952-192 192s85.952 192 192 192c83.456 0 153.792-53.568 180.224-128 0 0 395.776 0 395.776 0s0-128 0-128c0 0-395.776 0-395.776 0zM832 768c0 0 192 0 192 0s0-128 0-128c0 0-192 0-192 0s0 128 0 128zM576 512c-83.456 0-153.792 53.568-180.224 128 0 0-395.776 0-395.776 0s0 128 0 128c0 0 395.776 0 395.776 0 26.432 74.432 96.768 128 180.224 128 106.048 0 192-85.952 192-192s-85.952-192-192-192zM192 128c0 0-192 0-192 0s0 128 0 128c0 0 192 0 192 0s0-128 0-128z" />
<glyph unicode="&#xe623;" glyph-name="icon_mute" d="M1023.374 352.939c0 0-74.98-74.98-74.98-74.98s-95.061 95.061-95.061 95.061c0 0-95.061-95.061-95.061-95.061s-74.98 74.98-74.98 74.98c0 0 95.061 95.061 95.061 95.061s-95.061 95.061-95.061 95.061c0 0 74.98 74.98 74.98 74.98s95.061-95.061 95.061-95.061c0 0 95.061 95.061 95.061 95.061s74.98-74.98 74.98-74.98c0 0-95.061-95.061-95.061-95.061s95.061-95.061 95.061-95.061zM506.823-7.111c0 0-62.066 0-62.066 0s-217.202 227.556-217.202 227.556c0 0-170.667 0-170.667 0-33.394 0-56.889 25.486-56.889 56.889 0 0 0 341.333 0 341.333 0 31.403 23.495 56.889 56.889 56.889 0 0 170.667 0 170.667 0s217.202 227.556 217.202 227.556c0 0 62.066 0 62.066 0 34.304 0 62.066-25.486 62.066-56.889 0 0 0-796.444 0-796.444 0-31.403-27.762-56.889-62.066-56.889z" />
<glyph unicode="&#xe624;" glyph-name="icon_newwindow" d="M750.933 278.357c0 0 0-273.135 0-273.135s-750.933 0-750.933 0c0 0 0 612.489 0 612.489s273.067 0 273.067 0c0 0 0 272.998 0 272.998s750.933 0 750.933 0c0 0 0-612.352 0-612.352s-273.067 0-273.067 0zM887.467 755.2c0 0-477.867 0-477.867 0s0-137.489 0-137.489c0 0 341.333 0 341.333 0s0-203.844 0-203.844c0 0 136.533 0 136.533 0s0 341.333 0 341.333z" />
<glyph unicode="&#xe625;" glyph-name="icon_next" d="M837.818 122.182c0 0 0 267.078 0 267.078s-419.747-267.078-419.747-267.078c0 0 0 266.333 0 266.333s-418.583-266.333-418.583-266.333c0 0 0 651.823 0 651.823s418.583-266.333 418.583-266.333c0 0 0 266.333 0 266.333s419.747-267.078 419.747-267.078c0 0 0 266.892 0 266.892s186.182 0 186.182 0c0 0 0-651.636 0-651.636s-186.182 0-186.182 0z" />
<glyph unicode="&#xe626;" glyph-name="icon_notrack" d="M556.26 33.621c0 0 0-50.233 0-50.233 0-26.169-19.854-47.388-44.26-47.388s-44.26 21.22-44.26 47.388c0 0 0 50.233 0 50.233-199.054 23.609-353.963 204.231-353.963 423.879 0 26.169 19.797 47.388 44.26 47.388 24.405 0 44.26-21.22 44.26-47.388 0-183.012 138.923-331.89 309.703-331.89s309.703 148.878 309.703 331.89c0 26.169 19.854 47.388 44.26 47.388 24.462 0 44.26-21.22 44.26-47.388 0-219.648-154.908-400.27-353.963-423.879zM512 220.444c-126.123 0-228.352 107.975-228.352 241.152 0 0 0 257.252 0 257.252 0 133.177 102.229 241.152 228.352 241.152s228.352-107.975 228.352-241.152c0 0 0-257.252 0-257.252 0-133.177-102.229-241.152-228.352-241.152zM682.041 713.728c0 0-74.98 74.98-74.98 74.98s-95.061-95.061-95.061-95.061c0 0-95.061 95.061-95.061 95.061s-74.98-74.98-74.98-74.98c0 0 95.061-95.061 95.061-95.061s-95.061-95.061-95.061-95.061c0 0 74.98-74.98 74.98-74.98s95.061 95.061 95.061 95.061c0 0 95.061-95.061 95.061-95.061s74.98 74.98 74.98 74.98c0 0-95.061 95.061-95.061 95.061s95.061 95.061 95.061 95.061z" />
<glyph unicode="&#xe627;" glyph-name="icon_previous" d="M605.929 388.515c0 0 0-266.333 0-266.333s-419.747 267.078-419.747 267.078c0 0 0-267.078 0-267.078s-186.182 0-186.182 0c0 0 0 651.636 0 651.636s186.182 0 186.182 0c0 0 0-266.892 0-266.892s419.747 267.078 419.747 267.078c0 0 0-266.333 0-266.333s418.583 266.333 418.583 266.333c0 0 0-651.823 0-651.823s-418.583 266.333-418.583 266.333z" />
<glyph unicode="&#xe628;" glyph-name="icon_ru" d="M780.766 238.694c-9.284-19.456-19.319-35.294-30.037-47.445-10.718-12.22-22.187-21.845-34.406-28.945-12.151-7.031-25.19-11.878-38.912-14.541-13.79-2.594-28.467-3.891-44.032-3.891-24.235 0-41.37 2.116-51.541 6.417-10.172 4.233-15.155 10.65-15.155 18.91 0 0 0 85.197 0 85.197s34.543 0 34.543 0c5.188 0 10.718 0.41 16.725 1.229 5.871 0.887 11.878 2.731 17.886 5.666 6.007 2.867 12.015 7.236 17.886 12.902 5.939 5.666 11.332 13.312 16.316 23.074 0 0 18.91 37.41 18.91 37.41s-240.981 421.547-240.981 421.547c0 0 131.004 0 131.004 0 12.083 0 21.572-2.867 28.604-8.533s12.834-12.971 17.545-21.845c0 0 88.951-180.429 88.951-180.429 7.441-13.585 13.995-27.17 19.797-40.687 5.734-13.585 10.854-27.375 15.223-41.233 4.096 13.858 8.875 27.648 14.404 41.233 5.461 13.517 11.537 27.102 18.159 40.687 0 0 79.872 180.429 79.872 180.429 1.638 3.55 3.891 7.236 6.827 10.854 2.867 3.55 6.144 6.827 9.899 9.694 3.686 2.935 7.919 5.325 12.766 7.1 4.779 1.775 10.103 2.731 15.838 2.731 0 0 115.302 0 115.302 0s-241.391-517.53-241.391-517.53zM437.658 475.17c-9.626-25.19-24.303-46.831-44.1-64.853s-44.783-32.085-75.162-42.189c-30.379-10.103-66.219-15.155-107.725-15.155 0 0-72.499 0-72.499 0s0-202.479 0-202.479c0 0-139.196 0-139.196 0s0 605.73 0 605.73c0 0 211.695 0 211.695 0 42.325 0 78.643-5.052 108.954-15.155 30.379-10.172 55.364-24.098 75.025-41.847 19.524-17.681 34.065-38.639 43.418-62.737 9.284-24.098 13.995-50.176 13.995-78.165 0-30.174-4.847-57.958-14.404-83.149zM306.654 596.139c-4.164 11.332-10.377 21.163-18.773 29.355-8.397 8.124-18.91 14.473-31.676 18.91s-27.989 6.622-45.534 6.622c0 0-72.499 0-72.499 0s0-192.034 0-192.034c0 0 72.499 0 72.499 0 36.25 0 62.327 8.738 78.302 26.146 15.906 17.476 23.893 41.847 23.893 73.182 0 13.858-2.116 26.419-6.212 37.82z" />
<glyph unicode="&#xe629;" glyph-name="icon_save" d="M512 960c-256 0-448-192-448-192 0-448 192-768 448-832 256 64 448 384 448 832 0 0-192 192-448 192zM672.256 255.872c0 0-159.744 119.488-159.744 119.488s-160.256-119.488-160.256-119.488c0 0 63.744 193.856 63.744 193.856s-159.744 126.272-159.744 126.272c0 0 191.872 0 191.872 0s64.128 192 64.128 192c0 0 64.384-192 64.384-192s191.872 0 191.872 0c0 0-159.744-124.608-159.744-124.608s63.488-195.52 63.488-195.52z" />
<glyph unicode="&#xe62a;" glyph-name="icon_settings" d="M1018.823 504.832c-1.593 14.393-18.375 25.202-32.825 25.202-46.876 0-88.405 27.591-105.87 70.201-17.749 43.577-6.315 94.492 28.615 126.578 10.98 10.069 12.288 26.908 3.072 38.628-23.95 30.436-51.2 58.027-80.953 81.863-11.605 9.387-28.729 8.078-38.798-3.129-30.492-33.792-85.22-46.364-127.488-28.672-43.975 18.546-71.737 63.204-69.006 111.161 0.91 15.076-10.126 28.103-25.088 29.867-38.172 4.437-76.686 4.608-114.972 0.341-14.791-1.65-25.771-14.45-25.316-29.298 1.707-47.502-26.396-91.364-69.973-109.227-41.756-17.124-96.085-4.665-126.521 28.843-10.012 11.036-26.852 12.402-38.514 3.243-30.663-24.064-58.482-51.655-82.716-81.863-9.444-11.776-8.021-28.843 3.072-38.912 35.556-32.256 47.047-83.627 28.558-127.772-17.636-42.098-61.269-69.177-111.161-69.177-16.213 0.512-27.762-10.354-29.525-25.145-4.494-38.457-4.551-77.653-0.228-116.452 1.593-14.45 18.887-25.145 33.508-25.145 44.487 1.138 87.211-26.453 105.131-70.201 17.863-43.634 6.372-94.436-28.558-126.578-10.923-10.069-12.345-26.852-3.129-38.571 23.78-30.322 51.029-57.856 80.839-81.92 11.719-9.444 28.786-8.135 38.912 3.072 30.606 33.849 85.276 46.421 127.431 28.729 44.089-18.489 71.851-63.147 69.12-111.161-0.91-15.076 10.126-28.16 25.088-29.867 19.513-2.276 39.14-3.47 58.88-3.47 18.66 0 37.376 1.081 56.092 3.129 14.791 1.65 25.771 14.45 25.259 29.355-1.707 47.388 26.453 91.307 69.973 109.17 42.041 17.18 96.142 4.608 126.521-28.9 10.126-10.98 26.795-12.288 38.571-3.186 30.606 24.007 58.368 51.541 82.66 81.863 9.444 11.719 8.135 28.843-3.015 38.912-35.556 32.256-47.104 83.627-28.615 127.716 17.351 41.529 59.335 69.404 104.505 69.404 0 0 6.315-0.171 6.315-0.171 14.677-1.138 28.16 10.126 29.924 25.145 4.494 38.457 4.551 77.596 0.228 116.395zM511.829 276.139c-94.037 0-170.496 76.572-170.496 170.78 0 94.151 76.459 170.78 170.496 170.78 93.98 0 170.439-76.629 170.439-170.78 0-94.208-76.459-170.78-170.439-170.78z" />
<glyph unicode="&#xe62b;" glyph-name="icon_share" d="M768 550.4c-50.739 0-96.614 19.149-132.403 49.766 0 0-182.477-99.584-182.477-99.584 4.506-16.896 7.68-34.304 7.68-52.582s-3.174-35.686-7.68-52.582c0 0 182.477-99.584 182.477-99.584 35.789 30.618 81.613 49.766 132.403 49.766 113.101 0 204.8-91.699 204.8-204.8s-91.699-204.8-204.8-204.8c-113.101 0-204.8 91.699-204.8 204.8 0 24.166 4.915 46.95 12.595 68.454 0 0-174.080 95.027-174.080 95.027-37.12-37.683-88.678-61.082-145.715-61.082-113.101 0-204.8 91.699-204.8 204.8s91.699 204.8 204.8 204.8c57.037 0 108.595-23.398 145.715-61.082 0 0 174.080 95.027 174.080 95.027-7.68 21.504-12.595 44.339-12.595 68.454 0 113.101 91.699 204.8 204.8 204.8s204.8-91.699 204.8-204.8c0-113.101-91.699-204.8-204.8-204.8zM768 38.4c56.576 0 102.4 45.824 102.4 102.4s-45.824 102.4-102.4 102.4c-56.576 0-102.4-45.824-102.4-102.4s45.824-102.4 102.4-102.4zM768 857.6c-56.576 0-102.4-45.824-102.4-102.4s45.824-102.4 102.4-102.4c56.576 0 102.4 45.824 102.4 102.4s-45.824 102.4-102.4 102.4z" />
<glyph unicode="&#xe62c;" glyph-name="icon_stats" d="M0-64c0 0 0 128 0 128s1024 0 1024 0c0 0 0-128 0-128s-1024 0-1024 0zM704 896c0 35.392 28.608 64 64 64 0 0 128 0 128 0 35.392 0 64-28.608 64-64 0 0 0-768 0-768s-256 0-256 0c0 0 0 768 0 768zM384 640c0 35.392 28.608 64 64 64 0 0 128 0 128 0 35.392 0 64-28.608 64-64 0 0 0-512 0-512s-256 0-256 0c0 0 0 512 0 512zM64 384c0 35.392 28.608 64 64 64 0 0 128 0 128 0 35.392 0 64-28.608 64-64 0 0 0-256 0-256s-256 0-256 0c0 0 0 256 0 256z" />
<glyph unicode="&#xe62d;" glyph-name="icon_summary" d="M895.936-64c0 0-768 0-768 0-35.328 0-63.936 28.608-63.936 64 0 0 0 832 0 832 0 35.392 28.608 64 63.936 64 0 0 64.064 0 64.064 0s0-128 0-128c0 0 640 0 640 0s0 128 0 128c0 0 63.936 0 63.936 0 35.392 0 64.064-28.608 64.064-64 0 0 0-832 0-832 0-35.392-28.672-64-64.064-64zM768 576c0 0-512 0-512 0s0-64 0-64c0 0 512 0 512 0s0 64 0 64zM768 384c0 0-512 0-512 0s0-64 0-64c0 0 512 0 512 0s0 64 0 64zM768 192c0 0-512 0-512 0s0-64 0-64c0 0 512 0 512 0s0 64 0 64zM256 896c0 35.392 28.608 64 64 64 0 0 384 0 384 0 35.328 0 64-28.608 64-64 0 0 0-64 0-64s-512 0-512 0c0 0 0 64 0 64z" />
<glyph unicode="&#xe62e;" glyph-name="icon_theater" d="M910.222-7.111c0 0-227.556 0-227.556 0s0 113.778 0 113.778c0 0 227.556 0 227.556 0s0 227.556 0 227.556c0 0 113.778 0 113.778 0s0-341.333 0-341.333c0 0-113.778 0-113.778 0zM227.556 675.556c0 0 568.889 0 568.889 0s0-455.111 0-455.111c0 0-568.889 0-568.889 0s0 455.111 0 455.111zM113.778 561.778c0 0-113.778 0-113.778 0s0 227.556 0 227.556c0 0 0 113.778 0 113.778s341.333 0 341.333 0c0 0 0-113.778 0-113.778s-227.556 0-227.556 0c0 0 0-227.556 0-227.556z" />
<glyph unicode="&#xe62f;" glyph-name="icon_track" d="M556.26 33.564c0 0 0-50.176 0-50.176 0-26.169-19.854-47.388-44.26-47.388s-44.26 21.22-44.26 47.388c0 0 0 50.176 0 50.176-199.054 23.666-353.963 204.288-353.963 423.936 0 26.169 19.797 47.388 44.26 47.388 24.405 0 44.26-21.22 44.26-47.388 0-183.012 138.923-331.833 309.703-331.833s309.703 148.821 309.703 331.833c0 26.169 19.854 47.388 44.26 47.388 24.462 0 44.26-21.22 44.26-47.388 0-219.648-154.908-400.27-353.963-423.936zM512 220.444c-126.123 0-228.352 107.975-228.352 241.152 0 0 0 257.252 0 257.252 0 133.177 102.229 241.152 228.352 241.152s228.352-107.975 228.352-241.152c0 0 0-257.252 0-257.252 0-133.177-102.229-241.152-228.352-241.152z" />
<glyph unicode="&#xe630;" glyph-name="icon_volume-high" d="M851.537 130.614c-7.222-4.473-15.037-6.521-22.797-6.521-16.6 0-32.66 9.701-41.283 26.947-12.611 25.223-4.365 57.021 18.432 71.033 76.369 46.781 123.796 134.467 123.796 228.783 0 89.95-44.248 175.589-115.496 223.448-22.259 14.983-29.373 47.104-15.845 71.788 13.474 24.63 42.523 32.499 64.781 17.57 99.22-66.668 160.876-186.53 160.876-312.805 0-132.312-66.075-255.030-172.463-320.243zM693.895 286.37c-26.031 0-47.158 23.39-47.158 52.278 0 28.834 21.127 52.224 47.158 52.224 28.726 0 52.116 25.923 52.116 57.775s-23.39 57.721-52.116 57.721c-26.031 0-47.158 23.39-47.158 52.278 0 28.834 21.127 52.224 47.158 52.224 80.734 0 146.432-72.758 146.432-162.223s-65.698-162.277-146.432-162.277zM480.148 16.842c0 0-58.799 0-58.799 0s-205.77 215.579-205.77 215.579c0 0-161.684 0-161.684 0-31.636 0-53.895 24.145-53.895 53.895 0 0 0 323.368 0 323.368 0 29.75 22.259 53.895 53.895 53.895 0 0 161.684 0 161.684 0s205.77 215.579 205.77 215.579c0 0 58.799 0 58.799 0 32.499 0 58.799-24.145 58.799-53.895 0 0 0-754.526 0-754.526 0-29.75-26.301-53.895-58.799-53.895z" />
<glyph unicode="&#xe631;" glyph-name="icon_volume-low" d="M824 256.064c-30.912 0-56 27.776-56 62.080 0 34.24 25.088 62.016 56 62.016 34.112 0 61.888 30.784 61.888 68.608s-27.776 68.544-61.888 68.544c-30.912 0-56 27.776-56 62.080 0 34.24 25.088 62.016 56 62.016 95.872 0 173.888-86.4 173.888-192.64s-78.016-192.704-173.888-192.704zM570.176-64c0 0-69.824 0-69.824 0s-244.352 256-244.352 256c0 0-192 0-192 0-37.568 0-64 28.672-64 64 0 0 0 384 0 384 0 35.328 26.432 64 64 64 0 0 192 0 192 0s244.352 256 244.352 256c0 0 69.824 0 69.824 0 38.592 0 69.824-28.672 69.824-64 0 0 0-896 0-896 0-35.328-31.232-64-69.824-64z" />
<glyph unicode="&#xe632;" glyph-name="icon_washer" d="M1005.888 256c-57.088-110.208-255.616-192-493.888-192s-436.8 81.792-493.888 192c0 0-18.112 0-18.112 0s0 320 0 320c0 141.376 229.248 256 512 256s512-114.624 512-256c0 0 0-320 0-320s-18.112 0-18.112 0zM128 408.32c0 0 0-127.936 0-127.936 93.312-53.952 230.016-88.384 384-88.384s290.688 34.432 384 88.384c0 0 0 127.936 0 127.936-93.824-53.696-230.208-88.32-384-88.32s-290.176 34.624-384 88.32z" />
<glyph unicode="&#xe633;" glyph-name="icon-play" d="M512-64c-282.752 0-512 229.248-512 512s229.248 512 512 512c282.752 0 512-229.248 512-512s-229.248-512-512-512zM425.045 652.032c0 0 0-408.149 0-408.149s313.216 204.075 313.216 204.075c0 0-313.216 204.075-313.216 204.075z" />
<glyph unicode="&#xe634;" glyph-name="icon-pause" d="M509.85-59.733c-281.566 0-509.85 228.284-509.85 509.884 0 281.566 228.284 509.85 509.85 509.85 281.6 0 509.884-228.284 509.884-509.85 0-281.6-228.284-509.884-509.884-509.884zM482.133 619.725c0 0-114.142 0-114.142 0s0-339.183 0-339.183c0 0 114.142 0 114.142 0s0 339.183 0 339.183zM651.742 619.725c0 0-113.084 0-113.084 0s0-339.183 0-339.183c0 0 113.084 0 113.084 0s0 339.183 0 339.183z" />
<glyph unicode="&#xe635;" glyph-name="icon-gallery" horiz-adv-x="1243" d="M1024.219 155.209c0 0 0-218.405 0-218.405s-1024.219 0-1024.219 0c0 0 0 803.913 0 803.913s219.209 0 219.209 0c0 0 0 218.478 0 218.478s1024.219 0 1024.219 0c0 0 0-803.986 0-803.986s-219.209 0-219.209 0zM146.286 594.286c0 0 0-512 0-512s731.429 0 731.429 0c0 0 0 512 0 512s-731.429 0-731.429 0zM1096.119 812.032c0 0-736.329 0-736.329 0s0-71.314 0-71.314c0 0 664.43 0 664.43 0s0-446.537 0-446.537c0 0 71.899 0 71.899 0s0 517.851 0 517.851zM365.714 521.143c0 0 312.539-186.953 312.539-186.953s-312.539-178.761-312.539-178.761c0 0 0 365.714 0 365.714z" />
<glyph unicode="&#xe636;" glyph-name="icon-videoduration" horiz-adv-x="1195" d="M0-62.805c0 0 0 84.139 0 84.139s170.667 0 170.667 0c0 0 0 170.667 0 170.667s-170.667 0-170.667 0c0 0 0 512 0 512s170.667 0 170.667 0c0 0 0 170.667 0 170.667s-170.667 0-170.667 0c0 0 0 85.589 0 85.589s1194.923 0 1194.923 0c0 0 0-1023.061 0-1023.061s-1194.923 0-1194.923 0zM512 874.667c0 0-170.667 0-170.667 0s0-170.667 0-170.667c0 0 170.667 0 170.667 0s0 170.667 0 170.667zM512 192c0 0-170.667 0-170.667 0s0-170.667 0-170.667c0 0 170.667 0 170.667 0s0 170.667 0 170.667zM853.333 874.667c0 0-170.667 0-170.667 0s0-170.667 0-170.667c0 0 170.667 0 170.667 0s0 170.667 0 170.667zM853.333 192c0 0-170.667 0-170.667 0s0-170.667 0-170.667c0 0 170.667 0 170.667 0s0 170.667 0 170.667zM1194.667 874.667c0 0-170.667 0-170.667 0s0-170.667 0-170.667c0 0 170.667 0 170.667 0s0 170.667 0 170.667zM1194.667 192c0 0-170.667 0-170.667 0s0-170.667 0-170.667c0 0 170.667 0 170.667 0s0 170.667 0 170.667z" />
</font>
</defs>
</svg>
