<?xml version="1.0" encoding="utf-8"?>
<!-- Generator: Adobe Illustrator 18.1.1, SVG Export Plug-In . SVG Version: 6.00 Build 0)  -->
<!DOCTYPE svg PUBLIC "-//W3C//DTD SVG 1.1//EN" "http://www.w3.org/Graphics/SVG/1.1/DTD/svg11.dtd">
<svg version="1.1" id="Layer_1" xmlns="http://www.w3.org/2000/svg" xmlns:xlink="http://www.w3.org/1999/xlink" x="0px" y="0px"
	 viewBox="0 0 16 16" enable-background="new 0 0 16 16" xml:space="preserve">
<g>
	<path d="M11.1,8C10.7,8,9.8,8.8,8,8.8S5.3,8,4.9,8C4.4,8,4,8.4,4,8.8c0,0.4,0.3,0.6,0.4,0.7c0.5,0.3,2.2,0.9,2.2,0.9l-1.9,2.2
		c0,0-0.3,0.4-0.3,0.6c0,0.4,0.4,0.8,0.9,0.8C5.8,14,6,13.7,6,13.7s2-2.1,2-2.1c0,0,2,2.1,2,2.1s0.2,0.3,0.7,0.3
		c0.5,0,0.9-0.4,0.9-0.8c0-0.3-0.3-0.6-0.3-0.6l-1.9-2.2c0,0,1.7-0.6,2.2-0.9C11.7,9.4,12,9.2,12,8.8C12,8.4,11.6,8,11.1,8z"/>
	<path d="M8,2C6.3,2,4.9,3.3,4.9,4.8c0,1.5,1.4,2.8,3.1,2.8c1.7,0,3.1-1.3,3.1-2.8C11.1,3.3,9.7,2,8,2z M8,6.2
		c-0.9,0-1.6-0.6-1.6-1.4C6.4,4,7.1,3.4,8,3.4c0.9,0,1.6,0.6,1.6,1.4C9.6,5.6,8.9,6.2,8,6.2z"/>
</g>
</svg>
