<svg xmlns="http://www.w3.org/2000/svg" xmlns:xlink="http://www.w3.org/1999/xlink" preserveAspectRatio="xMidYMid" width="8" height="8" viewBox="0 0 8 8">
  <path d="M7.989,6.648 C7.989,6.648 6.648,7.989 6.648,7.989 C6.648,7.989 4.000,5.341 4.000,5.341 C4.000,5.341 1.352,7.989 1.352,7.989 C1.352,7.989 0.011,6.648 0.011,6.648 C0.011,6.648 2.659,4.000 2.659,4.000 C2.659,4.000 0.011,1.352 0.011,1.352 C0.011,1.352 1.352,0.011 1.352,0.011 C1.352,0.011 4.000,2.659 4.000,2.659 C4.000,2.659 6.648,0.011 6.648,0.011 C6.648,0.011 7.989,1.352 7.989,1.352 C7.989,1.352 5.341,4.000 5.341,4.000 C5.341,4.000 7.989,6.648 7.989,6.648 Z" id="path-1" class="cls-2" fill-rule="evenodd"/>
</svg>
