<svg xmlns="http://www.w3.org/2000/svg" xmlns:xlink="http://www.w3.org/1999/xlink" preserveAspectRatio="xMidYMid" width="18" height="18" viewBox="0 0 18 18">
  <defs>
    <style>

      .cls-2 {
        fill: #02a7fd;
      }
    </style>
  </defs>
  <path d="M9.000,18.000 C4.029,18.000 0.000,13.970 0.000,9.000 C0.000,4.029 4.029,0.000 9.000,0.000 C13.971,0.000 18.000,4.029 18.000,9.000 C18.000,13.970 13.971,18.000 9.000,18.000 ZM12.989,6.352 C12.989,6.352 11.648,5.011 11.648,5.011 C11.648,5.011 9.000,7.659 9.000,7.659 C9.000,7.659 6.352,5.011 6.352,5.011 C6.352,5.011 5.011,6.352 5.011,6.352 C5.011,6.352 7.659,9.000 7.659,9.000 C7.659,9.000 5.011,11.648 5.011,11.648 C5.011,11.648 6.352,12.989 6.352,12.989 C6.352,12.989 9.000,10.341 9.000,10.341 C9.000,10.341 11.648,12.989 11.648,12.989 C11.648,12.989 12.989,11.648 12.989,11.648 C12.989,11.648 10.341,9.000 10.341,9.000 C10.341,9.000 12.989,6.352 12.989,6.352 Z" id="path-1" class="cls-2" fill-rule="evenodd"/>
</svg>
