<?xml version="1.0" encoding="utf-8"?>
<!-- Generator: Adobe Illustrator 16.0.4, SVG Export Plug-In . SVG Version: 6.00 Build 0)  -->
<!DOCTYPE svg PUBLIC "-//W3C//DTD SVG 1.0//EN" "http://www.w3.org/TR/2001/REC-SVG-20010904/DTD/svg10.dtd">
<svg version="1.0" id="Layer_1" xmlns="http://www.w3.org/2000/svg" xmlns:xlink="http://www.w3.org/1999/xlink" x="0px" y="0px"
	 width="10.29px" height="10.289px" viewBox="0 0 10.29 10.289" style="enable-background:new 0 0 10.29 10.289;"
	 xml:space="preserve">
<path d="M7.717,10.289c-0.59,0-1.133-0.201-1.568-0.536C5.828,9.82,5.487,9.86,5.145,9.86c-2.606,0-4.716-2.109-4.716-4.716
	c0-0.342,0.04-0.683,0.107-1.005C0.201,3.704,0,3.161,0,2.572C0,1.152,1.152,0,2.572,0c0.589,0,1.131,0.201,1.567,0.536
	c0.322-0.067,0.664-0.107,1.006-0.107c2.605,0,4.715,2.109,4.715,4.716c0,0.342-0.039,0.683-0.107,1.005
	c0.336,0.436,0.537,0.979,0.537,1.567C10.29,9.137,9.137,10.289,7.717,10.289z M5.774,4.481l-0.696-0.16
	C4.569,4.2,4.186,4.112,4.186,3.725c0-0.354,0.375-0.517,0.965-0.517c1.053,0,1.072,0.771,1.722,0.771
	c0.436,0,0.696-0.342,0.696-0.73c0-0.771-1.279-1.273-2.545-1.273c-1.158,0-2.505,0.503-2.505,1.863c0,1.125,0.75,1.527,1.728,1.762
	l0.979,0.24C5.821,5.989,6.19,6.056,6.19,6.484c0,0.341-0.383,0.603-0.972,0.603c-1.239,0-1.306-1.031-2.023-1.031
	c-0.469,0-0.677,0.335-0.677,0.703c0,0.824,1.259,1.494,2.767,1.494c1.259,0,2.572-0.63,2.572-1.99
	C7.858,5.098,6.725,4.696,5.774,4.481z"/>
</svg>
