<svg xmlns="http://www.w3.org/2000/svg" xmlns:xlink="http://www.w3.org/1999/xlink" preserveAspectRatio="xMidYMid" width="22" height="18" viewBox="0 0 22 18">
  <defs>
    <style>

      .cls-2 {
        fill: #000000;
      }
    </style>
  </defs>
  <path d="M18.000,13.985 C18.000,13.985 18.000,17.985 18.000,17.985 C18.000,17.985 0.000,17.985 0.000,17.985 C0.000,17.985 0.000,4.015 0.000,4.015 C0.000,4.015 4.000,4.015 4.000,4.015 C4.000,4.015 4.000,0.015 4.000,0.015 C4.000,0.015 22.000,0.015 22.000,0.015 C22.000,0.015 22.000,13.985 22.000,13.985 C22.000,13.985 18.000,13.985 18.000,13.985 ZM2.000,16.000 C2.000,16.000 16.000,16.000 16.000,16.000 C16.000,16.000 16.000,6.000 16.000,6.000 C16.000,6.000 2.000,6.000 2.000,6.000 C2.000,6.000 2.000,16.000 2.000,16.000 ZM20.000,2.000 C20.000,2.000 6.000,2.000 6.000,2.000 C6.000,2.000 6.000,4.015 6.000,4.015 C6.000,4.015 18.000,4.015 18.000,4.015 C18.000,4.015 18.000,12.000 18.000,12.000 C18.000,12.000 20.000,12.000 20.000,12.000 C20.000,12.000 20.000,2.000 20.000,2.000 ZM10.446,11.262 C10.446,11.262 8.726,13.921 8.726,13.921 C8.726,13.921 7.234,12.941 7.234,12.941 C7.234,12.941 5.826,14.842 5.826,14.842 C5.826,14.842 3.725,14.842 3.725,14.842 C3.725,14.842 6.831,10.648 6.831,10.648 C6.831,10.648 8.235,11.571 8.235,11.571 C8.235,11.571 10.556,7.982 10.556,7.982 C10.556,7.982 14.362,14.842 14.362,14.842 C14.362,14.842 12.432,14.842 12.432,14.842 C12.432,14.842 10.446,11.262 10.446,11.262 ZM4.673,10.301 C3.813,10.301 3.115,9.597 3.115,8.730 C3.115,7.861 3.813,7.158 4.673,7.158 C5.534,7.158 6.231,7.861 6.231,8.730 C6.231,9.597 5.534,10.301 4.673,10.301 Z" id="path-1" class="cls-2" fill-rule="evenodd"/>
</svg>
