<svg xmlns="http://www.w3.org/2000/svg" xmlns:xlink="http://www.w3.org/1999/xlink" preserveAspectRatio="xMidYMid" width="24" height="28" viewBox="0 0 24 28">
  <defs>
    <style>

      .cls-2 {
        fill: #e81c3e;
      }
    </style>
  </defs>
  <path d="M22.000,13.000 C22.000,13.000 20.000,13.000 20.000,13.000 C19.405,15.940 16.940,18.402 14.000,19.000 C14.000,19.000 14.000,20.000 14.000,20.000 C14.000,20.000 14.996,23.009 14.996,23.009 C15.825,23.009 17.000,24.171 17.000,25.000 C17.000,25.000 17.000,28.000 17.000,28.000 C17.000,28.000 7.000,28.000 7.000,28.000 C7.000,28.000 7.000,25.000 7.000,25.000 C7.000,24.171 8.163,23.009 8.993,23.009 C8.993,23.009 10.000,20.000 10.000,20.000 C10.000,20.000 10.000,19.000 10.000,19.000 C7.060,18.402 4.598,15.940 4.000,13.000 C4.000,13.000 2.000,13.000 2.000,13.000 C1.170,13.000 -0.012,11.835 -0.012,11.005 C-0.012,11.005 -0.012,7.003 -0.012,7.003 C-0.012,6.173 1.170,5.000 2.000,5.000 C2.000,5.000 4.000,5.000 4.000,5.000 C4.000,5.000 4.000,4.786 4.000,4.786 C4.000,3.276 2.806,2.051 1.333,2.051 C1.122,2.051 1.000,0.000 1.000,0.000 C1.000,0.000 4.000,0.000 4.000,0.000 C4.000,0.000 20.000,0.000 20.000,0.000 C20.000,0.000 23.000,0.000 23.000,0.000 C23.000,0.000 22.878,2.000 22.667,2.000 C21.194,2.000 20.000,3.194 20.000,4.667 C20.000,4.667 20.000,4.889 20.000,4.889 C20.000,4.889 20.000,5.000 20.000,5.000 C20.000,5.000 22.000,5.000 22.000,5.000 C22.830,5.000 24.001,6.173 24.001,7.003 C24.001,7.003 24.001,11.005 24.001,11.005 C24.001,11.835 22.830,13.000 22.000,13.000 ZM3.987,8.003 C3.987,8.003 1.986,8.003 1.986,8.003 C1.986,8.003 1.986,10.004 1.986,10.004 C1.986,10.004 3.987,10.004 3.987,10.004 C3.987,10.004 3.987,8.003 3.987,8.003 ZM12.000,5.000 C10.343,5.000 9.000,6.791 9.000,9.000 C9.000,11.209 10.343,13.000 12.000,13.000 C13.657,13.000 15.000,11.209 15.000,9.000 C15.000,6.791 13.657,5.000 12.000,5.000 ZM21.999,8.003 C21.999,8.003 19.998,8.003 19.998,8.003 C19.998,8.003 19.998,10.004 19.998,10.004 C19.998,10.004 21.999,10.004 21.999,10.004 C21.999,10.004 21.999,8.003 21.999,8.003 Z" id="path-1" class="cls-2" fill-rule="evenodd"/>
</svg>
