<svg xmlns="http://www.w3.org/2000/svg" xmlns:xlink="http://www.w3.org/1999/xlink" preserveAspectRatio="xMidYMid" width="8" height="14" viewBox="0 0 8 14">
  <defs>
    <style>

      .cls-2 {
        fill: #02a7fd;
      }
    </style>
  </defs>
  <path d="M6.931,2.131 C6.858,2.243 6.780,2.321 6.698,2.365 C6.615,2.410 6.510,2.432 6.383,2.432 C6.248,2.432 6.115,2.405 5.981,2.352 C5.847,2.299 5.702,2.239 5.547,2.171 C5.392,2.104 5.217,2.044 5.021,1.991 C4.827,1.938 4.605,1.911 4.355,1.911 C3.917,1.911 3.591,1.991 3.378,2.149 C3.165,2.308 3.058,2.511 3.058,2.758 C3.058,2.911 3.128,3.048 3.268,3.172 C3.408,3.295 3.594,3.413 3.825,3.524 C4.056,3.636 4.320,3.748 4.615,3.859 C4.911,3.971 5.213,4.091 5.524,4.220 C5.835,4.350 6.138,4.494 6.433,4.652 C6.728,4.811 6.992,4.995 7.223,5.203 C7.454,5.412 7.640,5.651 7.780,5.922 C7.920,6.192 7.990,6.501 7.990,6.847 C7.990,7.312 7.879,7.740 7.657,8.134 C7.434,8.528 7.071,8.848 6.565,9.095 C6.827,9.312 7.038,9.563 7.200,9.849 C7.361,10.134 7.442,10.476 7.442,10.875 C7.442,11.328 7.357,11.745 7.186,12.127 C7.016,12.509 6.762,12.838 6.423,13.114 C6.086,13.390 5.669,13.605 5.173,13.757 C4.676,13.910 4.105,13.987 3.460,13.987 C3.137,13.987 2.815,13.957 2.492,13.898 C2.169,13.840 1.857,13.760 1.556,13.661 C1.254,13.561 0.975,13.442 0.720,13.303 C0.464,13.165 0.245,13.017 0.062,12.859 C0.062,12.859 0.720,11.854 0.720,11.854 C0.793,11.736 0.886,11.644 0.998,11.576 C1.111,11.508 1.256,11.474 1.432,11.474 C1.596,11.474 1.744,11.510 1.875,11.580 C2.006,11.651 2.152,11.727 2.314,11.810 C2.475,11.892 2.663,11.968 2.880,12.039 C3.096,12.109 3.375,12.145 3.715,12.145 C4.111,12.145 4.420,12.075 4.642,11.938 C4.865,11.799 4.976,11.592 4.976,11.316 C4.976,11.099 4.904,10.915 4.761,10.765 C4.619,10.615 4.431,10.482 4.200,10.364 C3.968,10.247 3.703,10.138 3.405,10.038 C3.107,9.938 2.802,9.829 2.492,9.712 C2.181,9.594 1.877,9.462 1.579,9.315 C1.280,9.169 1.015,8.991 0.784,8.782 C0.552,8.574 0.365,8.325 0.222,8.037 C0.079,7.749 0.008,7.406 0.008,7.006 C0.008,6.548 0.128,6.133 0.368,5.763 C0.609,5.393 0.969,5.096 1.450,4.873 C1.182,4.644 0.967,4.368 0.802,4.045 C0.638,3.721 0.556,3.333 0.556,2.881 C0.556,2.493 0.633,2.124 0.788,1.775 C0.944,1.425 1.177,1.118 1.487,0.854 C1.798,0.589 2.187,0.379 2.656,0.223 C3.125,0.068 3.673,-0.010 4.300,-0.010 C4.641,-0.010 4.971,0.019 5.291,0.078 C5.611,0.137 5.911,0.219 6.191,0.325 C6.471,0.430 6.727,0.556 6.958,0.699 C7.189,0.844 7.394,1.001 7.570,1.171 C7.570,1.171 6.931,2.131 6.931,2.131 ZM2.510,6.574 C2.510,6.780 2.583,6.958 2.729,7.107 C2.875,7.257 3.067,7.395 3.305,7.521 C3.542,7.648 3.813,7.768 4.117,7.883 C4.422,7.998 4.732,8.120 5.049,8.249 C5.219,8.149 5.341,8.030 5.415,7.892 C5.488,7.754 5.524,7.605 5.524,7.447 C5.524,7.235 5.452,7.053 5.309,6.900 C5.166,6.747 4.976,6.610 4.738,6.486 C4.501,6.363 4.232,6.245 3.930,6.133 C3.629,6.021 3.323,5.901 3.012,5.772 C2.836,5.884 2.708,6.003 2.629,6.129 C2.550,6.256 2.510,6.403 2.510,6.574 Z" id="path-1" class="cls-2" fill-rule="evenodd"/>
</svg>
