<svg xmlns="http://www.w3.org/2000/svg" xmlns:xlink="http://www.w3.org/1999/xlink" preserveAspectRatio="xMidYMid" width="17" height="17" viewBox="0 0 17 17">
  <path d="M15.989,14.615 C15.989,14.615 14.615,15.989 14.615,15.989 C14.615,15.989 8.500,9.874 8.500,9.874 C8.500,9.874 2.385,15.989 2.385,15.989 C2.385,15.989 1.011,14.615 1.011,14.615 C1.011,14.615 7.126,8.500 7.126,8.500 C7.126,8.500 1.011,2.385 1.011,2.385 C1.011,2.385 2.385,1.011 2.385,1.011 C2.385,1.011 8.500,7.126 8.500,7.126 C8.500,7.126 14.615,1.011 14.615,1.011 C14.615,1.011 15.989,2.385 15.989,2.385 C15.989,2.385 9.874,8.500 9.874,8.500 C9.874,8.500 15.989,14.615 15.989,14.615 Z" id="path-1" class="cls-2" fill-rule="evenodd"/>
</svg>
