<svg xmlns="http://www.w3.org/2000/svg" xmlns:xlink="http://www.w3.org/1999/xlink" preserveAspectRatio="xMidYMid" width="22" height="15" viewBox="0 0 22 15">
  <defs>
    <style>

      .cls-2 {
        fill: #cacfd1;
      }
    </style>
  </defs>
  <path d="M11.000,15.000 C4.810,15.000 0.000,9.018 0.000,7.500 C0.000,5.982 4.810,0.000 11.000,0.000 C17.190,0.000 22.000,5.982 22.000,7.500 C22.000,9.018 17.190,15.000 11.000,15.000 ZM11.000,3.000 C8.239,3.000 6.000,5.239 6.000,8.000 C6.000,10.762 8.239,13.000 11.000,13.000 C13.761,13.000 16.000,10.762 16.000,8.000 C16.000,5.239 13.761,3.000 11.000,3.000 ZM11.000,11.000 C9.343,11.000 8.000,9.657 8.000,8.000 C8.000,6.343 9.343,5.000 11.000,5.000 C12.657,5.000 14.000,6.343 14.000,8.000 C14.000,9.657 12.657,11.000 11.000,11.000 Z" id="path-1" class="cls-2" fill-rule="evenodd"/>
</svg>
