<?xml version="1.0" encoding="utf-8"?>
<!-- Generator: Adobe Illustrator 18.1.1, SVG Export Plug-In . SVG Version: 6.00 Build 0)  -->
<!DOCTYPE svg PUBLIC "-//W3C//DTD SVG 1.1//EN" "http://www.w3.org/Graphics/SVG/1.1/DTD/svg11.dtd">
<svg version="1.1" id="Layer_1" xmlns="http://www.w3.org/2000/svg" xmlns:xlink="http://www.w3.org/1999/xlink" x="0px" y="0px"
	 viewBox="0 0 16 16" enable-background="new 0 0 16 16" xml:space="preserve">
<g>
	<path fill="#050505" d="M12,8.5c0-2,1.5-3,1.6-3c-0.9-1.4-2.2-1.6-2.7-1.6C9.8,3.7,8.7,4.6,8.1,4.6c-0.6,0-1.5-0.7-2.4-0.7
		c-1.3,0-2.4,0.8-3,2C1.3,8.4,2.3,12,3.6,14c0.6,1,1.4,2.1,2.3,2c0.9,0,1.3-0.7,2.4-0.7c1.1,0,1.4,0.7,2.4,0.6c1,0,1.6-1,2.3-2
		c0.7-1.1,1-2.2,1-2.3C14,11.7,12,10.9,12,8.5z"/>
	<path fill="#050505" d="M10.2,2.6C10.7,1.9,11,0.9,10.9,0c-0.7,0-1.6,0.5-2.2,1.2C8.3,1.8,7.9,2.8,8,3.7C8.8,3.8,9.7,3.2,10.2,2.6z
		"/>
</g>
</svg>
