<svg xmlns="http://www.w3.org/2000/svg" xmlns:xlink="http://www.w3.org/1999/xlink" preserveAspectRatio="xMidYMid" width="24" height="12" viewBox="0 0 24 12">
  <defs>
    <style>

      .cls-2 {
        fill: #ffffff;
      }
    </style>
  </defs>
  <path d="M20.991,10.833 C20.991,11.583 21.556,12.000 22.239,12.000 C23.265,12.000 24.000,11.150 24.000,10.233 C24.000,9.550 23.607,9.033 22.769,9.033 C21.709,9.033 20.991,9.933 20.991,10.833 C20.991,10.833 20.991,10.833 20.991,10.833 ZM5.863,6.183 C5.624,7.250 5.487,7.683 5.094,8.450 C4.701,9.200 4.034,10.117 3.197,10.117 C2.410,10.117 2.188,9.567 2.188,8.800 C2.188,7.067 3.778,4.483 5.368,4.483 C5.778,4.483 6.034,4.567 6.188,4.750 C6.188,4.750 5.863,6.183 5.863,6.183 ZM9.966,4.950 C10.205,4.867 10.410,4.800 10.598,4.900 C10.786,5.000 10.786,5.283 10.667,5.800 C10.667,5.800 9.709,10.150 9.709,10.150 C9.641,10.450 9.624,10.700 9.624,10.917 C9.624,11.467 10.000,11.983 10.735,11.983 C11.932,11.983 12.974,11.150 13.709,10.117 C13.709,10.117 13.316,9.750 13.316,9.750 C13.316,9.750 12.718,10.333 12.188,10.333 C11.966,10.333 11.829,10.217 11.932,9.817 C11.932,9.817 12.872,5.883 12.872,5.883 C12.991,5.367 13.094,5.033 13.094,4.717 C13.094,4.417 12.991,3.650 12.000,3.650 C11.231,3.650 10.496,4.000 9.897,4.850 C9.897,4.850 9.966,4.950 9.966,4.950 ZM11.231,1.267 C11.162,2.017 11.709,2.617 12.427,2.617 C13.197,2.617 13.778,2.067 13.846,1.367 C13.915,0.650 13.368,-0.000 12.650,-0.000 C11.915,-0.000 11.299,0.550 11.231,1.267 C11.231,1.267 11.231,1.267 11.231,1.267 ZM20.479,10.067 C20.239,10.517 19.077,11.983 17.077,11.983 C15.162,11.983 14.205,10.650 14.205,8.917 C14.205,7.433 14.940,5.800 16.085,4.833 C17.179,3.900 18.171,3.650 19.179,3.650 C20.701,3.650 21.316,4.467 21.316,5.283 C21.316,5.933 20.855,6.733 19.932,6.733 C19.419,6.733 19.009,6.467 18.821,5.933 C19.060,5.733 19.145,5.417 19.145,5.133 C19.145,4.883 18.940,4.567 18.530,4.567 C17.453,4.567 16.359,5.867 16.359,8.067 C16.359,9.250 16.991,10.267 18.222,10.267 C18.855,10.267 19.521,10.150 20.154,9.667 C20.154,9.667 20.479,10.067 20.479,10.067 ZM8.701,9.750 C8.701,9.750 8.154,10.367 7.573,10.367 C7.333,10.367 7.214,10.167 7.299,9.800 C7.299,9.800 8.564,4.100 8.564,4.100 C8.410,3.983 7.316,3.650 5.983,3.650 C4.479,3.650 3.026,4.083 1.744,5.500 C0.410,6.983 -0.000,8.650 -0.000,9.633 C-0.000,10.867 0.547,11.983 1.846,11.983 C3.145,11.983 4.667,10.867 5.692,8.350 C5.692,8.350 5.744,8.367 5.744,8.367 C5.744,8.367 4.991,10.100 4.991,10.950 C4.991,11.450 5.128,11.983 5.966,11.983 C7.094,11.983 8.359,11.150 9.094,10.117 C9.094,10.117 8.701,9.750 8.701,9.750 Z" id="path-1" class="cls-2" fill-rule="evenodd"/>
</svg>
