<?xml version="1.0" encoding="utf-8"?>
<!-- Generator: Adobe Illustrator 16.0.4, SVG Export Plug-In . SVG Version: 6.00 Build 0)  -->
<!DOCTYPE svg PUBLIC "-//W3C//DTD SVG 1.0//EN" "http://www.w3.org/TR/2001/REC-SVG-20010904/DTD/svg10.dtd">
<svg version="1.0" id="Layer_1" xmlns="http://www.w3.org/2000/svg" xmlns:xlink="http://www.w3.org/1999/xlink" x="0px" y="0px"
	 width="11.139px" height="8.752px" viewBox="0 0 11.139 8.752" style="enable-background:new 0 0 11.139 8.752;"
	 xml:space="preserve">
<path d="M10.077,2.697C9.106,3.368,8.13,4.04,7.167,4.718C6.763,4.997,6.079,5.569,5.576,5.569H5.569H5.563
	c-0.504,0-1.187-0.572-1.591-0.852C3.009,4.04,2.033,3.368,1.069,2.697C0.628,2.398,0,1.696,0,1.131c0-0.609,0.33-1.132,0.995-1.132
	h9.15c0.541,0,0.994,0.447,0.994,0.994C11.139,1.69,10.624,2.317,10.077,2.697z M11.139,7.757c0,0.547-0.447,0.994-0.994,0.994
	h-9.15C0.448,8.751,0,8.304,0,7.757V2.821c0.187,0.205,0.398,0.386,0.628,0.541C1.66,4.064,2.704,4.767,3.717,5.507
	c0.522,0.385,1.168,0.857,1.846,0.857h0.006h0.007c0.678,0,1.324-0.473,1.847-0.857c1.013-0.733,2.057-1.442,3.096-2.145
	c0.223-0.155,0.435-0.336,0.621-0.541V7.757z"/>
</svg>
