<?xml version="1.0" encoding="utf-8"?>
<!-- Generator: Adobe Illustrator 16.0.4, SVG Export Plug-In . SVG Version: 6.00 Build 0)  -->
<!DOCTYPE svg PUBLIC "-//W3C//DTD SVG 1.0//EN" "http://www.w3.org/TR/2001/REC-SVG-20010904/DTD/svg10.dtd">
<svg version="1.0" id="Layer_1" xmlns="http://www.w3.org/2000/svg" xmlns:xlink="http://www.w3.org/1999/xlink" x="0px" y="0px"
	 width="11.147px" height="9.432px" viewBox="0 0 11.147 9.432" style="enable-background:new 0 0 11.147 9.432;"
	 xml:space="preserve">
<path d="M10.745,7.181L10.611,7.51L9.372,7.73c-0.194,0.73-0.857,1.272-1.654,1.272v0.214c0,0.121-0.094,0.215-0.215,0.215H7.074
	c-0.12,0-0.214-0.094-0.214-0.215V5.359c0-0.121,0.094-0.214,0.214-0.214h0.429c0.121,0,0.215,0.094,0.215,0.214v0.214
	c0.643,0,1.199,0.354,1.493,0.878l0.456-0.08C9.793,5.955,9.86,5.526,9.86,5.078c0-2.023-2.002-3.792-4.287-3.792
	c-2.284,0-4.287,1.769-4.287,3.792c0,0.449,0.067,0.877,0.194,1.293l0.456,0.08C2.23,5.928,2.787,5.573,3.43,5.573V5.359
	c0-0.121,0.094-0.214,0.214-0.214h0.429c0.121,0,0.214,0.094,0.214,0.214v3.858c0,0.121-0.094,0.215-0.214,0.215H3.644
	c-0.121,0-0.214-0.094-0.214-0.215V9.003c-0.797,0-1.46-0.542-1.655-1.272L0.536,7.51L0.402,7.181C0.134,6.518,0,5.808,0,5.078
	C0,2.324,2.552,0,5.573,0s5.574,2.324,5.574,5.078C11.147,5.808,11.012,6.518,10.745,7.181z"/>
</svg>
