<?xml version="1.0" encoding="utf-8"?>
<!-- Generator: Adobe Illustrator 18.1.1, SVG Export Plug-In . SVG Version: 6.00 Build 0)  -->
<!DOCTYPE svg PUBLIC "-//W3C//DTD SVG 1.1//EN" "http://www.w3.org/Graphics/SVG/1.1/DTD/svg11.dtd">
<svg version="1.1" id="Layer_1" xmlns="http://www.w3.org/2000/svg" xmlns:xlink="http://www.w3.org/1999/xlink" x="0px" y="0px"
	 viewBox="0 0 16 16" enable-background="new 0 0 16 16" xml:space="preserve">
<g>
	<path fill="#050505" d="M10.5,1.8l0.2-0.2l0.2-0.2l0.4-0.5c0-0.1,0-0.2,0-0.2c-0.1,0-0.2,0-0.2,0l-0.4,0.6l-0.2,0.2l-0.2,0.2
		C9.7,1.4,8.6,1.3,8,1.3c-0.6,0-1.7,0.1-2.3,0.3L5.6,1.4L5.4,1.1L5,0.6c0-0.1-0.1-0.1-0.2,0c-0.1,0-0.1,0.1,0,0.2l0.4,0.5l0.2,0.2
		l0.2,0.2C4.2,2.3,4,3.4,4,4h8C12,3.3,11.8,2.3,10.5,1.8z M5.7,3.5c-0.2,0-0.4-0.2-0.4-0.4s0.2-0.4,0.4-0.4c0.2,0,0.4,0.2,0.4,0.4
		S6,3.5,5.7,3.5z M10.3,3.5c-0.2,0-0.4-0.2-0.4-0.4s0.2-0.4,0.4-0.4c0.2,0,0.4,0.2,0.4,0.4S10.5,3.5,10.3,3.5z"/>
	<path fill="#050505" d="M4.4,5H4v1v0.6v5.1C4,12.1,4.5,13,5,13v0.1v1.5c0,0.5,0.5,0.9,1,0.9c0.5,0,1-0.4,1-0.9V13h2v1.6
		c0,0.5,0.5,0.9,1,0.9c0.5,0,1-0.4,1-0.9v-1.5V13c0.5,0,1-0.9,1-1.4V6.6V6V5h-0.4H4.4z"/>
	<path fill="#050505" d="M2,5.2c-0.5,0-1,0.4-1,0.9v3.7c0,0.5,0.5,0.9,1,0.9c0.5,0,1-0.4,1-0.9V6.1C3,5.6,2.5,5.2,2,5.2z"/>
	<path fill="#050505" d="M14,5.2c-0.5,0-1,0.4-1,0.9v3.7c0,0.5,0.5,0.9,1,0.9c0.5,0,1-0.4,1-0.9V6.1C15,5.6,14.5,5.2,14,5.2z"/>
</g>
</svg>
