<?xml version="1.0" encoding="utf-8"?>
<!-- Generator: Adobe Illustrator 18.1.1, SVG Export Plug-In . SVG Version: 6.00 Build 0)  -->
<!DOCTYPE svg PUBLIC "-//W3C//DTD SVG 1.1//EN" "http://www.w3.org/Graphics/SVG/1.1/DTD/svg11.dtd">
<svg version="1.1" id="Layer_1" xmlns="http://www.w3.org/2000/svg" xmlns:xlink="http://www.w3.org/1999/xlink" x="0px" y="0px"
	 viewBox="0 0 16 16" enable-background="new 0 0 16 16" xml:space="preserve">
<g>
	<path fill="#020202" d="M13.5,4.2c-0.4,0.2-0.8,0.3-1.3,0.4c0.5-0.3,0.8-0.8,1-1.4c-0.4,0.3-0.9,0.5-1.4,0.6
		c-0.4-0.5-1-0.8-1.6-0.8C8.9,3,7.9,4.1,7.9,5.5c0,0.2,0,0.4,0.1,0.6C6,6,4.4,5,3.3,3.5C3.1,3.8,3,4.3,3,4.7c0,0.9,0.4,1.6,1,2.1
		c-0.4,0-0.7-0.1-1-0.3v0c0,1.2,0.8,2.2,1.8,2.5C4.6,9.1,4.4,9.1,4.2,9.1c-0.1,0-0.3,0-0.4,0c0.3,1,1.1,1.7,2.1,1.8
		c-0.8,0.7-1.7,1.1-2.8,1.1c-0.2,0-0.4,0-0.5,0C3.5,12.6,4.7,13,6,13c4.2,0,6.4-3.8,6.4-7.2l0-0.3C12.8,5.1,13.2,4.7,13.5,4.2z"/>
</g>
</svg>
