<svg xmlns="http://www.w3.org/2000/svg" xmlns:xlink="http://www.w3.org/1999/xlink" preserveAspectRatio="xMidYMid" width="14" height="13" viewBox="0 0 14 13">
  <defs>
    <style>

      .cls-2 {
        fill: #02a7fd;
      }
    </style>
  </defs>
  <path d="M13.000,4.000 C13.000,4.000 7.816,4.000 7.816,4.000 C7.403,5.163 6.304,6.000 5.000,6.000 C3.696,6.000 2.597,5.163 2.184,4.000 C2.184,4.000 1.000,4.000 1.000,4.000 C0.448,4.000 -0.000,3.552 -0.000,3.000 C-0.000,2.448 0.448,2.000 1.000,2.000 C1.000,2.000 2.184,2.000 2.184,2.000 C2.597,0.837 3.696,0.000 5.000,0.000 C6.304,0.000 7.403,0.837 7.816,2.000 C7.816,2.000 13.000,2.000 13.000,2.000 C13.552,2.000 14.000,2.448 14.000,3.000 C14.000,3.552 13.552,4.000 13.000,4.000 ZM5.000,2.000 C4.448,2.000 4.000,2.448 4.000,3.000 C4.000,3.552 4.448,4.000 5.000,4.000 C5.552,4.000 6.000,3.552 6.000,3.000 C6.000,2.448 5.552,2.000 5.000,2.000 ZM1.000,9.000 C1.000,9.000 6.184,9.000 6.184,9.000 C6.597,7.837 7.696,7.000 9.000,7.000 C10.304,7.000 11.403,7.837 11.816,9.000 C11.816,9.000 13.000,9.000 13.000,9.000 C13.552,9.000 14.000,9.448 14.000,10.000 C14.000,10.552 13.552,11.000 13.000,11.000 C13.000,11.000 11.816,11.000 11.816,11.000 C11.403,12.163 10.304,13.000 9.000,13.000 C7.696,13.000 6.597,12.163 6.184,11.000 C6.184,11.000 1.000,11.000 1.000,11.000 C0.448,11.000 0.000,10.552 0.000,10.000 C0.000,9.448 0.448,9.000 1.000,9.000 ZM9.000,11.000 C9.552,11.000 10.000,10.552 10.000,10.000 C10.000,9.448 9.552,9.000 9.000,9.000 C8.448,9.000 8.000,9.448 8.000,10.000 C8.000,10.552 8.448,11.000 9.000,11.000 Z" id="path-1" class="cls-2" fill-rule="evenodd"/>
</svg>
