<svg xmlns="http://www.w3.org/2000/svg" xmlns:xlink="http://www.w3.org/1999/xlink" preserveAspectRatio="xMidYMid" width="16" height="16" viewBox="0 0 16 16">
  <defs>
    <style>

      .cls-2 {
        fill: #02a7fd;
      }
    </style>
  </defs>
  <path d="M15.987,11.989 C15.987,11.989 11.999,15.990 11.999,15.990 C11.999,15.990 8.011,11.989 8.011,11.989 C8.011,11.989 11.016,11.989 11.016,11.989 C11.016,11.989 11.016,9.000 11.016,9.000 C11.016,9.000 12.984,9.000 12.984,9.000 C12.984,9.000 12.984,11.989 12.984,11.989 C12.984,11.989 15.987,11.989 15.987,11.989 ZM7.000,7.000 C7.000,7.000 9.000,7.000 9.000,7.000 C9.000,7.000 9.000,9.000 9.000,9.000 C9.000,9.000 7.000,9.000 7.000,9.000 C7.000,9.000 7.000,7.000 7.000,7.000 ZM5.000,7.000 C5.000,7.000 3.000,7.000 3.000,7.000 C3.000,7.000 3.000,3.988 3.000,3.988 C3.000,3.988 0.014,3.988 0.014,3.988 C0.014,3.988 3.000,1.001 3.000,1.001 C3.000,1.001 3.000,1.000 3.000,1.000 C3.000,1.000 3.001,1.000 3.001,1.000 C3.001,1.000 4.001,-0.001 4.001,-0.001 C4.001,-0.001 7.988,3.988 7.988,3.988 C7.988,3.988 5.000,3.988 5.000,3.988 C5.000,3.988 5.000,7.000 5.000,7.000 Z" id="path-1" class="cls-2" fill-rule="evenodd"/>
</svg>
