<?xml version="1.0" encoding="utf-8"?>
<!-- Generator: Adobe Illustrator 18.1.1, SVG Export Plug-In . SVG Version: 6.00 Build 0)  -->
<!DOCTYPE svg PUBLIC "-//W3C//DTD SVG 1.1//EN" "http://www.w3.org/Graphics/SVG/1.1/DTD/svg11.dtd">
<svg version="1.1" id="Layer_1" xmlns="http://www.w3.org/2000/svg" xmlns:xlink="http://www.w3.org/1999/xlink" x="0px" y="0px"
	 viewBox="0 0 16 16" enable-background="new 0 0 16 16" xml:space="preserve">
<g>
	<path d="M11.7,2H4.3C3,2,2,3,2,4.3v2.4v4.9C2,13,3,14,4.3,14h7.4c1.3,0,2.3-1,2.3-2.3V6.8V4.3C14,3,13,2,11.7,2z M12,3h1v0.6V5h-2
		V3H12z M6.4,6.8C6.8,6.3,7.4,6,8,6c0.7,0,1.3,0.3,1.6,0.8C9.9,7.2,10,7.6,10,8c0,1.1-0.9,2-2,2c-1.1,0-2-0.9-2-2
		C6,7.6,6.2,7.2,6.4,6.8z M13,11.7c0,0.6-0.7,1.3-1.3,1.3H4.3C3.7,13,3,12.3,3,11.7V7h2C4.8,7,4.7,7.7,4.7,8.1
		c0,1.8,1.5,3.2,3.3,3.2c1.8,0,3.3-1.4,3.3-3.2C11.3,7.7,11.2,7,11,7h2V11.7z"/>
</g>
</svg>
