<?xml version="1.0" encoding="utf-8"?>
<!-- Generator: Adobe Illustrator 18.1.1, SVG Export Plug-In . SVG Version: 6.00 Build 0)  -->
<!DOCTYPE svg PUBLIC "-//W3C//DTD SVG 1.1//EN" "http://www.w3.org/Graphics/SVG/1.1/DTD/svg11.dtd">
<svg version="1.1" id="Layer_1" xmlns="http://www.w3.org/2000/svg" xmlns:xlink="http://www.w3.org/1999/xlink" x="0px" y="0px"
	 viewBox="0 0 16 16" enable-background="new 0 0 16 16" xml:space="preserve">
<g>
	<path d="M7.8,12h1c0,0,0.3,0,0.4-0.2c0.1-0.1,0.1-0.4,0.1-0.4s0-1.2,0.6-1.4c0.6-0.2,1.3,1.2,2.1,1.7c0.6,0.4,1.1,0.3,1.1,0.3
		l2.1,0c0,0,1.1-0.1,0.6-0.9c0-0.1-0.3-0.6-1.6-1.7c-1.3-1.2-1.2-1,0.5-3c1-1.2,1.4-2,1.3-2.3c-0.1-0.3-0.8-0.2-0.8-0.2l-2.4,0
		c0,0-0.2,0-0.3,0.1c-0.1,0.1-0.2,0.2-0.2,0.2S11.8,5.2,11.3,6c-1.1,1.7-1.5,1.8-1.7,1.7c-0.4-0.2-0.3-1-0.3-1.5
		c0-1.6,0.3-2.3-0.5-2.5C8.6,3.6,8.4,3.5,7.7,3.5c-0.9,0-1.6,0-2,0.2C5.4,3.8,5.2,4.1,5.3,4.1c0.2,0,0.5,0.1,0.7,0.3
		c0.2,0.3,0.2,1,0.2,1S6.4,7.4,6,7.7C5.6,7.8,5.2,7.5,4.2,5.9C3.7,5.2,3.4,4.3,3.4,4.3S3.3,4.1,3.2,4C3,3.9,2.8,3.9,2.8,3.9l-2.3,0
		c0,0-0.3,0-0.5,0.1c-0.1,0.1,0,0.4,0,0.4s1.8,3.9,3.8,5.9C5.7,12.1,7.8,12,7.8,12"/>
</g>
</svg>
