<svg xmlns="http://www.w3.org/2000/svg" xmlns:xlink="http://www.w3.org/1999/xlink" preserveAspectRatio="xMidYMid" width="16" height="16" viewBox="0 0 16 16">
  <defs>
    <style>

      .cls-2 {
        fill: #000000;
      }
    </style>
  </defs>
  <path d="M14.999,0.000 C14.999,0.000 4.000,0.000 4.000,0.000 C3.447,0.000 3.000,0.447 3.000,1.000 C3.000,1.000 3.000,5.000 3.000,5.000 C3.000,5.000 0.999,5.000 0.999,5.000 C0.447,5.000 -0.000,4.959 -0.000,5.512 C-0.000,5.512 -0.000,13.512 -0.000,13.512 C-0.000,14.617 0.895,16.000 1.999,16.000 C1.999,16.000 13.999,16.000 13.999,16.000 C15.104,16.000 16.000,14.617 16.000,13.512 C16.000,13.512 16.000,1.000 16.000,1.000 C16.000,0.447 15.552,0.000 14.999,0.000 ZM3.000,13.512 C3.000,14.065 2.553,14.512 2.000,14.512 C1.447,14.512 1.000,14.065 1.000,13.512 C1.000,13.512 1.000,6.000 1.000,6.000 C1.000,6.000 3.000,6.000 3.000,6.000 C3.000,6.000 3.000,13.512 3.000,13.512 ZM13.000,13.000 C13.000,13.000 6.000,13.000 6.000,13.000 C6.000,13.000 6.000,12.000 6.000,12.000 C6.000,12.000 13.000,12.000 13.000,12.000 C13.000,12.000 13.000,13.000 13.000,13.000 ZM13.000,10.000 C13.000,10.000 6.000,10.000 6.000,10.000 C6.000,10.000 6.000,9.000 6.000,9.000 C6.000,9.000 13.000,9.000 13.000,9.000 C13.000,9.000 13.000,10.000 13.000,10.000 ZM13.000,7.000 C13.000,7.000 6.000,7.000 6.000,7.000 C6.000,7.000 6.000,4.000 6.000,4.000 C6.000,4.000 13.000,4.000 13.000,4.000 C13.000,4.000 13.000,7.000 13.000,7.000 Z" id="path-1" class="cls-2" fill-rule="evenodd"/>
</svg>
