<?xml version="1.0" encoding="utf-8"?>
<!-- Generator: Adobe Illustrator 16.0.4, SVG Export Plug-In . SVG Version: 6.00 Build 0)  -->
<!DOCTYPE svg PUBLIC "-//W3C//DTD SVG 1.0//EN" "http://www.w3.org/TR/2001/REC-SVG-20010904/DTD/svg10.dtd">
<svg version="1.0" id="Layer_1" xmlns="http://www.w3.org/2000/svg" xmlns:xlink="http://www.w3.org/1999/xlink" x="0px" y="0px"
	 width="9.432px" height="9.432px" viewBox="0 0 9.432 9.432" style="enable-background:new 0 0 9.432 9.432;" xml:space="preserve"
	>
<path d="M9.224,8.38C9.083,8.708,8.708,8.922,8.407,9.09C8.012,9.305,7.61,9.432,7.161,9.432c-0.623,0-1.186-0.254-1.755-0.463
	C4.997,8.822,4.602,8.641,4.233,8.414C3.095,7.71,1.722,6.337,1.018,5.198C0.791,4.83,0.609,4.435,0.462,4.026
	C0.254,3.457,0,2.894,0,2.271C0,1.822,0.127,1.42,0.342,1.025c0.167-0.301,0.382-0.677,0.71-0.817C1.273,0.107,1.742,0,1.983,0
	C2.03,0,2.077,0,2.124,0.02c0.141,0.047,0.288,0.375,0.355,0.509C2.693,0.911,2.9,1.299,3.122,1.675
	C3.229,1.849,3.43,2.063,3.43,2.271c0,0.409-1.212,1.004-1.212,1.366c0,0.181,0.167,0.416,0.261,0.576
	c0.677,1.219,1.521,2.063,2.74,2.74c0.161,0.094,0.395,0.262,0.576,0.262c0.362,0,0.959-1.213,1.367-1.213
	c0.207,0,0.422,0.201,0.596,0.309c0.375,0.221,0.764,0.428,1.146,0.643C9.036,7.02,9.364,7.168,9.411,7.309
	c0.021,0.047,0.021,0.094,0.021,0.141C9.432,7.689,9.325,8.158,9.224,8.38z"/>
</svg>
