<?xml version="1.0" encoding="utf-8"?>
<!-- Generator: Adobe Illustrator 16.0.4, SVG Export Plug-In . SVG Version: 6.00 Build 0)  -->
<!DOCTYPE svg PUBLIC "-//W3C//DTD SVG 1.1//EN" "http://www.w3.org/Graphics/SVG/1.1/DTD/svg11.dtd">
<svg version="1.1" id="Layer_1" xmlns="http://www.w3.org/2000/svg" xmlns:xlink="http://www.w3.org/1999/xlink" x="0px" y="0px"
	 width="41.473px" height="42px" viewBox="0 0 41.473 42" enable-background="new 0 0 41.473 42" xml:space="preserve">
<g>
	<path d="M20.395,0.34c-8.801,0-15.962,7.111-15.962,15.853c0,10.248,12.8,22.444,14.26,23.801l1.856,1.726l1.7-1.88
		c0.125-0.138,0.32-0.344,0.572-0.611c9.108-9.647,13.536-17.182,13.536-23.036C36.357,7.452,29.196,0.34,20.395,0.34z
		 M20.319,34.579C16.185,30.307,9.433,22.09,9.433,16.193c0-5.984,4.917-10.853,10.962-10.853s10.962,4.869,10.962,10.853
		C31.357,19.136,29.405,24.689,20.319,34.579z"/>
	<circle cx="20.709" cy="15.933" r="5.167"/>
</g>
</svg>
