<svg xmlns="http://www.w3.org/2000/svg" xmlns:xlink="http://www.w3.org/1999/xlink" preserveAspectRatio="xMidYMid" width="18" height="18" viewBox="0 0 18 18">
  <defs>
    <style>

      .cls-2 {
        fill: #02a7fd;
      }
    </style>
  </defs>
  <path d="M18.000,14.000 C18.000,14.000 12.740,14.000 12.740,14.000 C13.532,15.135 14.000,16.512 14.000,18.000 C14.000,18.000 0.000,18.000 0.000,18.000 C0.000,15.020 1.866,12.481 4.491,11.471 C4.631,11.112 4.800,10.770 4.994,10.442 C3.807,9.749 3.000,8.475 3.000,7.000 C3.000,4.791 4.791,3.000 7.000,3.000 C7.047,3.000 7.091,3.012 7.137,3.014 C7.578,1.284 9.133,0.000 11.000,0.000 C13.209,0.000 15.000,1.791 15.000,4.000 C15.000,5.405 14.272,6.636 13.177,7.349 C15.976,8.265 18.000,10.895 18.000,14.000 ZM12.000,8.123 C12.000,8.123 12.000,6.816 12.000,6.816 C13.163,6.403 14.000,5.304 14.000,4.000 C14.000,2.343 12.657,1.000 11.000,1.000 C9.629,1.000 8.486,1.925 8.128,3.181 C9.784,3.670 11.000,5.185 11.000,7.000 C11.000,9.209 9.209,11.000 7.000,11.000 C6.566,11.000 6.155,10.913 5.763,10.785 C5.684,10.906 5.627,11.028 5.559,11.150 C6.025,11.053 6.506,11.000 7.000,11.000 C8.906,11.000 10.632,11.764 11.895,13.000 C11.895,13.000 17.000,13.000 17.000,13.000 C17.000,11.662 14.944,8.703 12.000,8.123 Z" id="path-1" class="cls-2" fill-rule="evenodd"/>
</svg>
