<svg xmlns="http://www.w3.org/2000/svg" xmlns:xlink="http://www.w3.org/1999/xlink" preserveAspectRatio="xMidYMid" width="16" height="14" viewBox="0 0 16 14">
  <defs>
    <style>

      .cls-2 {
        fill: #02a7fd;
      }
    </style>
  </defs>
  <path d="M16.000,6.996 C16.000,7.314 15.760,7.593 15.452,7.632 C15.452,7.632 5.413,8.846 5.413,8.846 C5.462,9.075 5.539,9.303 5.539,9.542 C5.539,9.771 5.204,9.883 5.105,10.087 C5.105,10.087 14.207,10.087 14.207,10.087 C14.554,10.087 14.840,10.382 14.840,10.739 C14.840,11.095 14.554,11.391 14.207,11.391 C14.207,11.391 4.076,11.391 4.076,11.391 C3.729,11.391 3.443,11.095 3.443,10.739 C3.443,10.423 4.125,9.761 4.279,9.452 C4.279,9.452 2.577,1.267 2.577,1.267 C2.577,1.267 0.615,1.267 0.615,1.267 C0.279,1.267 -0.000,0.978 -0.000,0.630 C-0.000,0.282 0.279,-0.006 0.615,-0.006 C0.615,-0.006 3.077,-0.006 3.077,-0.006 C3.721,-0.006 4.079,0.789 4.173,1.267 C4.173,1.267 15.402,1.267 15.402,1.267 C15.729,1.267 16.000,1.555 16.000,1.904 C16.000,1.904 16.000,6.996 16.000,6.996 ZM4.709,13.998 C4.017,13.998 3.443,13.407 3.443,12.694 C3.443,11.981 4.017,11.391 4.709,11.391 C5.402,11.391 5.975,11.981 5.975,12.694 C5.975,13.407 5.402,13.998 4.709,13.998 ZM13.574,13.998 C12.882,13.998 12.307,13.407 12.307,12.694 C12.307,11.981 12.882,11.391 13.574,11.391 C14.266,11.391 14.840,11.981 14.840,12.694 C14.840,13.407 14.266,13.998 13.574,13.998 Z" id="path-1" class="cls-2" fill-rule="evenodd"/>
</svg>
