<svg xmlns="http://www.w3.org/2000/svg" xmlns:xlink="http://www.w3.org/1999/xlink" preserveAspectRatio="xMidYMid" width="18" height="18" viewBox="0 0 18 18">
  <defs>
    <style>

      .cls-2 {
        fill: #02a7fd;
      }
    </style>
  </defs>
  <path d="M9.000,18.000 C4.029,18.000 -0.000,13.970 -0.000,9.000 C-0.000,4.029 4.029,0.000 9.000,0.000 C13.971,0.000 18.000,4.029 18.000,9.000 C18.000,13.970 13.971,18.000 9.000,18.000 ZM8.311,6.011 C8.311,6.011 7.011,7.311 7.011,7.311 C7.011,7.311 9.200,9.500 9.200,9.500 C9.200,9.500 7.011,11.689 7.011,11.689 C7.011,11.689 8.311,12.989 8.311,12.989 C8.311,12.989 11.800,9.500 11.800,9.500 C11.800,9.500 8.311,6.011 8.311,6.011 Z" id="path-1" class="cls-2" fill-rule="evenodd"/>
</svg>
